<?xml version="1.0" encoding="UTF-8" standalone="no"?>
<svg
   xmlns:osb="http://www.openswatchbook.org/uri/2009/osb"
   xmlns:dc="http://purl.org/dc/elements/1.1/"
   xmlns:cc="http://creativecommons.org/ns#"
   xmlns:rdf="http://www.w3.org/1999/02/22-rdf-syntax-ns#"
   xmlns:svg="http://www.w3.org/2000/svg"
   xmlns="http://www.w3.org/2000/svg"
   xmlns:sodipodi="http://sodipodi.sourceforge.net/DTD/sodipodi-0.dtd"
   xmlns:inkscape="http://www.inkscape.org/namespaces/inkscape"
   width="512"
   height="512"
   viewBox="0 0 135.46666 135.46667"
   version="1.1"
   id="svg8"
   inkscape:version="1.0.1 (3bc2e813f5, 2020-09-07)"
   sodipodi:docname="Accessibility.svg">
  <defs
     id="defs2">
    <linearGradient
       id="linearGradient1372"
       osb:paint="solid">
      <stop
         style="stop-color:#4d6278;stop-opacity:1;"
         offset="0"
         id="stop1370" />
    </linearGradient>
    <marker
       style="overflow:visible"
       id="Tail"
       refX="0.0"
       refY="0.0"
       orient="auto"
       inkscape:stockid="Tail"
       inkscape:isstock="true">
      <g
         transform="scale(-1.2)"
         id="g895"
         style="stroke:#000000;stroke-opacity:1;fill:#000000;fill-opacity:1">
        <path
           style="fill:#000000;fill-rule:evenodd;stroke:#000000;stroke-width:0.8;stroke-linecap:round;stroke-opacity:1;fill-opacity:1"
           d="M -3.8048674,-3.9585227 L 0.54352094,0"
           id="path883" />
        <path
           style="fill:#000000;fill-rule:evenodd;stroke:#000000;stroke-width:0.8;stroke-linecap:round;stroke-opacity:1;fill-opacity:1"
           d="M -1.2866832,-3.9585227 L 3.0617053,0"
           id="path885" />
        <path
           style="fill:#000000;fill-rule:evenodd;stroke:#000000;stroke-width:0.8;stroke-linecap:round;stroke-opacity:1;fill-opacity:1"
           d="M 1.3053582,-3.9585227 L 5.6537466,0"
           id="path887" />
        <path
           style="fill:#000000;fill-rule:evenodd;stroke:#000000;stroke-width:0.8;stroke-linecap:round;stroke-opacity:1;fill-opacity:1"
           d="M -3.8048674,4.1775838 L 0.54352094,0.21974226"
           id="path889" />
        <path
           style="fill:#000000;fill-rule:evenodd;stroke:#000000;stroke-width:0.8;stroke-linecap:round;stroke-opacity:1;fill-opacity:1"
           d="M -1.2866832,4.1775838 L 3.0617053,0.21974226"
           id="path891" />
        <path
           style="fill:#000000;fill-rule:evenodd;stroke:#000000;stroke-width:0.8;stroke-linecap:round;stroke-opacity:1;fill-opacity:1"
           d="M 1.3053582,4.1775838 L 5.6537466,0.21974226"
           id="path893" />
      </g>
    </marker>
    <marker
       style="overflow:visible"
       id="Arrow2Sstart"
       refX="0.0"
       refY="0.0"
       orient="auto"
       inkscape:stockid="Arrow2Sstart"
       inkscape:isstock="true">
      <path
         transform="scale(0.3) translate(-2.3,0)"
         d="M 8.7185878,4.0337352 L -2.2072895,0.016013256 L 8.7185884,-4.0017078 C 6.9730900,-1.6296469 6.9831476,1.6157441 8.7185878,4.0337352 z "
         style="fill-rule:evenodd;stroke-width:0.625;stroke-linejoin:round;stroke:#000000;stroke-opacity:1;fill:#000000;fill-opacity:1"
         id="path877" />
    </marker>
    <marker
       style="overflow:visible"
       id="EmptyDiamondLend"
       refX="0.0"
       refY="0.0"
       orient="auto"
       inkscape:stockid="EmptyDiamondLend"
       inkscape:isstock="true">
      <path
         transform="scale(0.8) translate(-7,0)"
         style="fill-rule:evenodd;fill:#ffffff;stroke:#000000;stroke-width:1pt;stroke-opacity:1"
         d="M 0,-7.0710768 L -7.0710894,0 L 0,7.0710589 L 7.0710462,0 L 0,-7.0710768 z "
         id="path971" />
    </marker>
  </defs>
  <sodipodi:namedview
     id="base"
     pagecolor="#ffffff"
     bordercolor="#666666"
     borderopacity="1.0"
     inkscape:pageopacity="0"
     inkscape:pageshadow="2"
     inkscape:zoom="0.7"
     inkscape:cx="240.14773"
     inkscape:cy="560"
     inkscape:document-units="mm"
     inkscape:current-layer="layer1"
     inkscape:document-rotation="0"
     showgrid="false"
     units="px"
     inkscape:window-width="1501"
     inkscape:window-height="1198"
     inkscape:window-x="260"
     inkscape:window-y="260"
     inkscape:window-maximized="0">
    <inkscape:grid
       type="xygrid"
       id="grid837" />
  </sodipodi:namedview>
  <metadata
     id="metadata5">
    <rdf:RDF>
      <cc:Work
         rdf:about="">
        <dc:format>image/svg+xml</dc:format>
        <dc:type
           rdf:resource="http://purl.org/dc/dcmitype/StillImage" />
        <dc:title></dc:title>
      </cc:Work>
    </rdf:RDF>
  </metadata>
  <g
     inkscape:label="Layer 1"
     inkscape:groupmode="layer"
     id="layer1">
    <path
       sodipodi:type="star"
       style="fill:none;stroke:#4d6278;stroke-width:3.20079;stroke-linejoin:round;stroke-miterlimit:2.61313;stroke-dasharray:none;stroke-dashoffset:74.47;stroke-opacity:1"
       id="path833"
       sodipodi:sides="6"
       sodipodi:cx="69.547623"
       sodipodi:cy="75.973213"
       sodipodi:r1="74.637619"
       sodipodi:r2="64.638069"
       sodipodi:arg1="0.52359878"
       sodipodi:arg2="1.0471976"
       inkscape:flatsided="true"
       inkscape:rounded="0"
       inkscape:randomized="0"
       d="M 134.1857,113.29202 69.547622,150.61083 4.9095484,113.29202 4.9095487,38.654403 69.547623,1.3355942 134.1857,38.654404 Z"
       transform="matrix(0.82648518,0,0,0.82675222,10.253254,4.8467144)" />
    <path
       style="fill:none;stroke:#4d6278;stroke-width:2.11667;stroke-linecap:round;stroke-linejoin:miter;stroke-miterlimit:4;stroke-dasharray:none;stroke-opacity:1"
       d="M 94.191667,95.25 41.275,37.041667"
       id="path843" />
    <path
       style="fill:none;stroke:#4d6278;stroke-width:2.11667;stroke-linecap:round;stroke-linejoin:round;stroke-miterlimit:4;stroke-dasharray:none;stroke-opacity:1;paint-order:stroke markers fill"
       d="M 41.810127,95.538755 93.656539,37.041668"
       id="path845" />
    <path
       d="m 38.175597,62.172888 a 4.3097419,4.3097419 0 0 0 -1.213596,0.194241 2.1521517,2.1521517 0 0 1 0.281256,1.048881 2.1754602,2.1754602 0 0 1 -2.17546,2.175459 2.1521517,2.1521517 0 0 1 -1.048883,-0.281255 4.3396544,4.3396544 0 1 0 4.156683,-3.137326 z m 11.052892,3.783751 c -2.1067,-4.110456 -6.277368,-6.891547 -11.052892,-6.891547 -4.775523,0 -8.947356,2.78303 -11.052891,6.89193 a 1.2567167,1.2567167 0 0 0 0,1.133963 c 2.1067,4.11045 6.277368,6.891541 11.052891,6.891541 4.775524,0 8.947357,-2.78303 11.052892,-6.89193 a 1.2567167,1.2567167 0 0 0 0,-1.133957 z m -11.052892,6.161207 c -3.832306,0 -7.345674,-2.136611 -9.242985,-5.594034 1.897311,-3.457429 5.410291,-5.59404 9.242985,-5.59404 3.832695,0 7.345675,2.136611 9.242986,5.59404 -1.896922,3.457423 -5.410291,5.594034 -9.242986,5.594034 z"
       id="path1348"
       style="fill:#4d6278;fill-opacity:1;stroke:none;stroke-width:0.79375;stroke-miterlimit:4;stroke-dasharray:none;stroke-opacity:1" />
    <path
       d="m 98.651789,59.346988 c -2.53915,0 -4.60659,2.06651 -4.60659,4.60658 0,1.72747 1.40501,3.13248 3.13248,3.13248 0.71126,0 1.28985,0.57859 1.28985,1.28984 0,0.71126 -0.57859,1.28985 -1.28985,1.28985 h -0.92131 c -0.30496,0 -0.55279,0.24829 -0.55279,0.55279 v 0.73705 c 0,0.3045 0.24783,0.55279 0.55279,0.55279 h 0.92131 c 1.72747,0 3.132481,-1.40501 3.132481,-3.13248 0,-1.72747 -1.405011,-3.13247 -3.132481,-3.13247 -0.71125,0 -1.28984,-0.57859 -1.28984,-1.28985 0,-1.52386 1.23963,-2.76395 2.76395,-2.76395 1.524321,0 2.763951,1.24009 2.763951,2.76395 v 0.92132 c 0,0.30449 0.24784,0.55279 0.55279,0.55279 h 0.73706 c 0.30495,0 0.55279,-0.2483 0.55279,-0.55279 v -0.92132 c 0,-2.54007 -2.06744,-4.60658 -4.606591,-4.60658 z m 0,-4.23806 c -4.88482,0 -8.84464,3.95982 -8.84464,8.84464 v 8.10759 c 0,3.66362 2.96986,6.63349 6.63348,6.63349 3.663621,0 6.633481,-2.96987 6.633481,-6.63349 v -0.45605 c 2.64096,-1.52985 4.42233,-4.37994 4.42233,-7.65154 0,-4.88482 -3.95983,-8.84464 -8.844651,-8.84464 z m 3.313981,14.58307 -1.10282,0.63893 v 1.73069 c 0,2.43827 -1.983591,4.42232 -4.422321,4.42232 -2.43873,0 -4.42232,-1.98405 -4.42232,-4.42232 v -8.10805 c 0,-3.65763 2.97585,-6.63348 6.63348,-6.63348 3.657631,0 6.633481,2.97585 6.633481,6.63348 0,2.35351 -1.27187,4.55223 -3.3195,5.73843 z"
       id="path1359"
       style="fill:#4d6278;fill-opacity:1;stroke:none;stroke-width:0.79375;stroke-miterlimit:4;stroke-dasharray:none;stroke-opacity:1" />
    <path
       d="m 67.734761,30.540479 c -2.74931,0 -4.989286,2.239975 -4.989286,4.989278 0,2.749302 2.239976,4.989286 4.989286,4.989286 2.749303,0 4.989279,-2.239984 4.989279,-4.989286 0,-2.749303 -2.239976,-4.989278 -4.989279,-4.989278 z m 12.805832,4.183716 -4.921726,-2.458259 1.741056,-5.217962 c 0.233868,-0.706811 -0.436568,-1.377247 -1.138187,-1.138179 l -5.217961,1.741048 -2.463452,-4.926918 c -0.332626,-0.665237 -1.278505,-0.665237 -1.611123,0 l -2.458267,4.921726 -5.223154,-1.741056 c -0.706819,-0.233868 -1.377255,0.436568 -1.138187,1.138187 l 1.741056,5.217954 -4.921719,2.463459 c -0.665244,0.332626 -0.665244,1.278505 0,1.611123 l 4.921719,2.458267 -1.741056,5.223154 c -0.233868,0.706819 0.436567,1.377255 1.138187,1.13818 L 64.46574,43.41387 66.924,48.335589 c 0.332618,0.665236 1.278505,0.665236 1.611123,0 l 2.45826,-4.921719 5.217961,1.741049 c 0.706819,0.233875 1.377248,-0.43656 1.13818,-1.13818 l -1.741049,-5.217961 4.921719,-2.45826 C 81.20583,36.0027 81.20583,35.056821 80.540564,34.724195 Z M 72.438197,40.2332 c -2.593386,2.593385 -6.813493,2.593385 -9.406879,0 -2.593392,-2.593386 -2.593392,-6.813493 0,-9.406879 2.593386,-2.593392 6.813493,-2.593392 9.406879,0 2.593392,2.593386 2.593392,6.813493 0,9.406879 z"
       id="path1376"
       style="stroke:#ffffff;stroke-width:0.79375;stroke-miterlimit:4;stroke-dasharray:none;stroke-opacity:1" />
    <path
       d="m 68.911182,108.20057 c 3.411617,0 6.527493,-1.55217 8.591779,-4.09557 0.305379,-0.37623 -0.02761,-0.9259 -0.499545,-0.83603 -5.366293,1.02199 -10.294304,-3.0925 -10.294304,-8.509549 0,-3.120418 1.670423,-5.98984 4.385303,-7.534837 0.418492,-0.238148 0.313242,-0.872627 -0.162281,-0.960469 a 11.153839,11.153839 0 0 0 -2.020952,-0.184918 c -6.10537,0 -11.060688,4.947539 -11.060688,11.060689 0,6.105364 4.947542,11.060684 11.060688,11.060684 z"
       id="path1387"
       style="stroke:#ffffff;stroke-width:0.79375;stroke-miterlimit:4;stroke-dasharray:none;stroke-opacity:1" />
  </g>
</svg>
