<?xml version="1.0" encoding="UTF-8" standalone="no"?>
<svg
   xmlns:dc="http://purl.org/dc/elements/1.1/"
   xmlns:cc="http://creativecommons.org/ns#"
   xmlns:rdf="http://www.w3.org/1999/02/22-rdf-syntax-ns#"
   xmlns:svg="http://www.w3.org/2000/svg"
   xmlns="http://www.w3.org/2000/svg"
   xmlns:sodipodi="http://sodipodi.sourceforge.net/DTD/sodipodi-0.dtd"
   xmlns:inkscape="http://www.inkscape.org/namespaces/inkscape"
   width="1200"
   height="630"
   viewBox="0 0 317.49999 166.6875"
   version="1.1"
   id="svg8"
   inkscape:version="1.0.1 (3bc2e813f5, 2020-09-07)"
   sodipodi:docname="H3_og_wide_topBannerHex.svg"
   inkscape:export-filename="C:\Users\h3tec\OneDrive\Pictures\PortfolioPics\H3_og_wide_topBannerHex.png"
   inkscape:export-xdpi="96"
   inkscape:export-ydpi="96">
  <defs
     id="defs2">
    <rect
       x="88.332788"
       y="18.174238"
       width="7.2162944"
       height="17.773466"
       id="rect863" />
    <style
       id="style1300">.fa-secondary{opacity:.4}</style>
    <style
       id="style1420">.fa-secondary{opacity:.4}</style>
    <style
       id="style1550">.fa-secondary{opacity:.4}</style>
  </defs>
  <sodipodi:namedview
     id="base"
     pagecolor="#ffffff"
     bordercolor="#666666"
     borderopacity="1.0"
     inkscape:pageopacity="0"
     inkscape:pageshadow="2"
     inkscape:zoom="0.58708333"
     inkscape:cx="600"
     inkscape:cy="315"
     inkscape:document-units="px"
     inkscape:current-layer="layer1"
     inkscape:document-rotation="0"
     showgrid="false"
     units="px"
     inkscape:window-width="1993"
     inkscape:window-height="1198"
     inkscape:window-x="101"
     inkscape:window-y="892"
     inkscape:window-maximized="0" />
  <metadata
     id="metadata5">
    <rdf:RDF>
      <cc:Work
         rdf:about="">
        <dc:format>image/svg+xml</dc:format>
        <dc:type
           rdf:resource="http://purl.org/dc/dcmitype/StillImage" />
        <dc:title></dc:title>
      </cc:Work>
    </rdf:RDF>
  </metadata>
  <g
     inkscape:groupmode="layer"
     id="layer2"
     inkscape:label="Border">
    <path
       id="path953-9-6-6-6-2-0-5-4-9"
       style="fill:none;fill-opacity:1;stroke:#efefef;stroke-width:1.32292;stroke-linecap:round;stroke-linejoin:round;stroke-miterlimit:4;stroke-dasharray:none;stroke-dashoffset:74.47;stroke-opacity:1;paint-order:stroke markers fill"
       d="M 66.895815,52.608168 40.833841,67.704921 V 97.898943 L 14.771348,112.9957 v 30.19402 l 26.062493,15.09727 26.061974,-15.09727 26.061974,15.09727 26.061971,-15.09727 26.06198,15.09727 26.06249,-15.09727 26.06196,15.09727 26.06199,-15.09727 26.06199,15.09727 26.06196,-15.09727 V 112.99621 L 301.45462,97.898943 V 67.704921 L 275.39213,52.608168 249.33017,67.704921 223.26818,52.608168 197.20619,67.704921 171.14423,52.608168 145.08174,67.704921 119.01976,52.608168 92.957789,67.704921 Z" />
  </g>
  <g
     inkscape:label="Layer 1"
     inkscape:groupmode="layer"
     id="layer1">
    <g
       inkscape:label="Layer 1"
       id="layer1-1"
       transform="matrix(0.47110345,0,0,0.47143912,13.882776,6.225813)"
       style="stroke-width:2.12191">
      <path
         sodipodi:type="star"
         style="fill:#000000;fill-opacity:1;stroke:#eaeaea;stroke-width:1.12285;stroke-linejoin:round;stroke-miterlimit:2.61313;stroke-dasharray:none;stroke-dashoffset:74.47;stroke-opacity:1"
         id="path833"
         sodipodi:sides="6"
         sodipodi:cx="56.928406"
         sodipodi:cy="66.282845"
         sodipodi:r1="64.202568"
         sodipodi:r2="55.601055"
         sodipodi:arg1="0.52359878"
         sodipodi:arg2="1.0471976"
         inkscape:flatsided="true"
         inkscape:rounded="0"
         inkscape:randomized="0"
         d="M 112.52946,98.384129 56.928405,130.48541 1.3273507,98.384128 1.327351,34.18156 56.928406,2.0802765 112.52946,34.181561 Z" />
      <g
         id="g849"
         transform="matrix(0.71055791,0,0,0.71055791,-4.6606785,-60.637378)"
         style="stroke-width:2.98625">
        <path
           style="fill:#ed5b00;fill-opacity:1;stroke-width:0.790115"
           d="m 76.301096,183.7952 v -62.78298 c 0,-2.52677 -2.219854,-4.60375 -4.720167,-4.24921 -31.530396,4.45558 -55.631293,32.00136 -54.509459,65.01342 1.153583,33.9037 30.345064,61.70612 64.264647,61.28014 13.335,-0.16669 25.656643,-4.46352 35.787543,-11.64961 2.09021,-1.48166 2.22779,-4.55877 0.41539,-6.37116 z"
           id="path839" />
        <path
           style="fill:#009976;fill-opacity:1;stroke-width:0.790115"
           d="m 152.49051,166.6502 c -2.18016,-31.60713 -27.43729,-56.86425 -59.044414,-59.04442 -2.413,-0.16669 -4.445,1.86796 -4.445,4.28625 v 59.20317 h 59.205814 c 2.41829,0 4.45029,-2.032 4.2836,-4.445 z"
           id="path837" />
        <path
           style="fill:#00419c;fill-opacity:1;stroke-width:0.790115"
           d="M 156.67887,183.7952 H 93.895888 l 41.812102,41.8121 c 1.59809,1.59808 4.22804,1.72773 5.87111,0.17991 10.23937,-9.6467 17.28258,-22.65097 19.34898,-37.2692 0.35454,-2.50296 -1.72244,-4.72281 -4.24921,-4.72281 z"
           id="path2" />
      </g>
      <g
         aria-label="3"
         id="text856"
         style="font-size:50.8001px;line-height:1.25;font-family:'Rockwell Extra Bold';-inkscape-font-specification:'Rockwell Extra Bold, ';stroke-width:0.424168;stroke-miterlimit:4;stroke-dasharray:none"
         transform="matrix(1.3058941,0,0,1.3457442,-36.147089,18.70298)">
        <path
           d="m 87.198644,1.9497248 q 5.010557,0 7.714273,2.1828168 2.728521,2.158012 2.728521,6.2507934 0,4.24161 -3.497468,6.07716 2.058793,0.94258 3.199811,2.629302 1.165823,1.661917 1.165823,4.018367 0,4.638486 -3.150202,7.01974 -3.150201,2.35645 -8.805681,2.35645 -4.911337,0 -8.508024,-1.909964 -0.94258,-0.47129 -0.94258,-1.587503 0,-0.669728 0.421681,-1.785941 0.843361,-2.083598 1.885159,-2.083598 0.198438,0 0.496095,0.124024 1.612308,0.768946 3.323835,1.190627 1.711526,0.42168 3.323834,0.42168 2.629302,0 3.968758,-0.967384 1.339456,-0.99219 1.339456,-2.82774 0,-1.785941 -1.066604,-2.678912 -1.066604,-0.917775 -3.150201,-0.917775 h -2.554888 q -0.868166,0 -1.215432,-0.545704 -0.347266,-0.570509 -0.347266,-2.108403 0,-1.537893 0.347266,-2.108402 0.347266,-0.570509 1.215432,-0.570509 h 1.88516 q 2.207621,0 3.274225,-0.818556 1.091408,-0.818557 1.091408,-2.554888 0,-1.6867221 -1.041799,-2.5548878 -1.041799,-0.8681657 -3.075787,-0.8681657 -1.860355,0 -3.795124,0.5705089 v 1.9595741 q 0,0.8681655 -0.570509,1.2154325 -0.570509,0.347266 -2.108403,0.347266 -1.587503,0 -2.30684,-0.347266 -0.719338,-0.372072 -0.719338,-1.2154325 V 5.2239499 q 0,-1.1162131 1.215432,-1.587503 1.959575,-0.7937516 4.067977,-1.2402368 2.133207,-0.4464853 4.192,-0.4464853 z"
           style="font-style:normal;font-variant:normal;font-weight:bold;font-stretch:normal;font-size:50.8001px;font-family:'Courier Prime';-inkscape-font-specification:'Courier Prime Bold';stroke-width:0.424168;stroke-miterlimit:4;stroke-dasharray:none"
           id="path858" />
      </g>
      <text
         xml:space="preserve"
         id="text861"
         style="font-size:10.5834px;line-height:1.25;font-family:'Rockwell Extra Bold';-inkscape-font-specification:'Rockwell Extra Bold, ';white-space:pre;shape-inside:url(#rect863);stroke-width:2.12191;" />
      <g
         aria-label="H"
         id="text869"
         style="font-size:50.8001px;line-height:1.25;font-family:'Rockwell Extra Bold';-inkscape-font-specification:'Rockwell Extra Bold, ';stroke-width:0.333824;stroke-miterlimit:4;stroke-dasharray:none"
         transform="matrix(1.4975534,0,0,1.8946548,-15.607915,-10.266985)">
        <path
           d="m 42.624409,25.88157 q 0.595314,0 0.917775,0.223242 0.322462,0.198438 0.47129,0.744143 0.173633,0.545704 0.173633,1.587503 0,1.041799 -0.173633,1.587503 -0.148828,0.545704 -0.47129,0.744142 -0.322461,0.198438 -0.917775,0.198438 h -1.41387 V 50.23982 h 1.41387 q 0.595314,0 0.917775,0.223243 0.322462,0.198438 0.47129,0.744142 0.173633,0.545704 0.173633,1.587503 0,1.041799 -0.173633,1.587503 -0.148828,0.545704 -0.47129,0.744142 -0.322461,0.198438 -0.917775,0.198438 h -9.276971 q -0.595314,0 -0.917775,-0.198438 -0.322462,-0.198438 -0.496095,-0.744142 -0.148829,-0.545704 -0.148829,-1.587503 0,-1.041799 0.148829,-1.587503 0.173633,-0.545704 0.496095,-0.744142 0.322461,-0.223243 0.917775,-0.223243 h 1.661917 v -7.416616 h -9.624237 v 7.416616 h 1.661917 q 0.595314,0 0.917775,0.223243 0.322462,0.198438 0.47129,0.744142 0.173633,0.545704 0.173633,1.587503 0,1.041799 -0.173633,1.587503 -0.148828,0.545704 -0.47129,0.744142 -0.322461,0.198438 -0.917775,0.198438 h -9.276971 q -0.595314,0 -0.917775,-0.198438 -0.322462,-0.198438 -0.496095,-0.744142 -0.148828,-0.545704 -0.148828,-1.587503 0,-1.041799 0.148828,-1.587503 0.173633,-0.545704 0.496095,-0.744142 0.322461,-0.223243 0.917775,-0.223243 h 1.41387 V 30.966541 h -1.41387 q -0.595314,0 -0.917775,-0.198438 -0.322462,-0.198438 -0.496095,-0.744142 -0.148828,-0.545704 -0.148828,-1.587503 0,-1.041799 0.148828,-1.587503 0.173633,-0.545705 0.496095,-0.744143 0.322461,-0.223242 0.917775,-0.223242 h 9.276971 q 0.595314,0 0.917775,0.223242 0.322462,0.198438 0.47129,0.744143 0.173633,0.545704 0.173633,1.587503 0,1.041799 -0.173633,1.587503 -0.148828,0.545704 -0.47129,0.744142 -0.322461,0.198438 -0.917775,0.198438 h -1.661917 v 6.523645 h 9.624237 v -6.523645 h -1.661917 q -0.595314,0 -0.917775,-0.198438 -0.322462,-0.198438 -0.496095,-0.744142 -0.148829,-0.545704 -0.148829,-1.587503 0,-1.041799 0.148829,-1.587503 0.173633,-0.545705 0.496095,-0.744143 0.322461,-0.223242 0.917775,-0.223242 z"
           style="font-style:normal;font-variant:normal;font-weight:bold;font-stretch:normal;font-size:50.8001px;font-family:'Courier Prime';-inkscape-font-specification:'Courier Prime Bold';stroke-width:0.333824;stroke-miterlimit:4;stroke-dasharray:none"
           id="path871" />
      </g>
    </g>
    <text
       xml:space="preserve"
       style="font-style:normal;font-variant:normal;font-weight:bold;font-stretch:normal;font-size:36.5712px;line-height:1.25;font-family:Ubuntu;-inkscape-font-specification:'Ubuntu Bold';fill:#4d6278;fill-opacity:1;stroke:#eaeaea;stroke-width:0.79375;stroke-linejoin:round;stroke-miterlimit:4;stroke-dasharray:none;stroke-opacity:1"
       x="74.077217"
       y="41.147587"
       id="text871"
       transform="scale(1.0003199,0.99968021)"><tspan
         sodipodi:role="line"
         id="tspan869"
         x="74.077217"
         y="41.147587"
         style="font-style:normal;font-variant:normal;font-weight:bold;font-stretch:normal;font-size:36.5712px;font-family:Ubuntu;-inkscape-font-specification:'Ubuntu Bold';fill:#4d6278;fill-opacity:1;stroke:#eaeaea;stroke-width:0.79375;stroke-linejoin:round;stroke-miterlimit:4;stroke-dasharray:none;stroke-opacity:1">H3 Tech Blog</tspan></text>
    <path
       sodipodi:type="star"
       style="fill:#efefef;fill-opacity:1;stroke:#4d6278;stroke-width:1.00891;stroke-linecap:round;stroke-linejoin:round;stroke-miterlimit:4;stroke-dasharray:none;stroke-dashoffset:74.47;stroke-opacity:1;paint-order:stroke markers fill"
       id="path953"
       sodipodi:sides="6"
       sodipodi:cx="254"
       sodipodi:cy="100.16368"
       sodipodi:r1="28.736135"
       sodipodi:r2="24.886223"
       sodipodi:arg1="-1.5707963"
       sodipodi:arg2="-1.0471976"
       inkscape:flatsided="true"
       inkscape:rounded="0"
       inkscape:randomized="0"
       transform="matrix(1.0472493,0,0,1.0507313,-199.10553,-22.443218)"
       d="m 254,71.427546 24.88622,14.368068 0,28.736136 L 254,128.89982 l -24.88622,-14.36807 0,-28.736137 z" />
    <path
       sodipodi:type="star"
       style="fill:#efefef;fill-opacity:1;stroke:#4d6278;stroke-width:1.00891;stroke-linecap:round;stroke-linejoin:round;stroke-miterlimit:4;stroke-dasharray:none;stroke-dashoffset:74.47;stroke-opacity:1;paint-order:stroke markers fill"
       id="path953-9"
       sodipodi:sides="6"
       sodipodi:cx="254"
       sodipodi:cy="100.16368"
       sodipodi:r1="28.736135"
       sodipodi:r2="24.886223"
       sodipodi:arg1="-1.5707963"
       sodipodi:arg2="-1.0471976"
       inkscape:flatsided="true"
       inkscape:rounded="0"
       inkscape:randomized="0"
       transform="matrix(1.0472493,0,0,1.0507313,-146.98137,-22.443217)"
       d="m 254,71.427546 24.88622,14.368068 0,28.736136 L 254,128.89982 l -24.88622,-14.36807 0,-28.736137 z" />
    <path
       sodipodi:type="star"
       style="fill:#efefef;fill-opacity:1;stroke:#4d6278;stroke-width:1.00891;stroke-linecap:round;stroke-linejoin:round;stroke-miterlimit:4;stroke-dasharray:none;stroke-dashoffset:74.47;stroke-opacity:1;paint-order:stroke markers fill"
       id="path953-9-8"
       sodipodi:sides="6"
       sodipodi:cx="254"
       sodipodi:cy="100.16368"
       sodipodi:r1="28.736135"
       sodipodi:r2="24.886223"
       sodipodi:arg1="-1.5707963"
       sodipodi:arg2="-1.0471976"
       inkscape:flatsided="true"
       inkscape:rounded="0"
       inkscape:randomized="0"
       transform="matrix(1.0472493,0,0,1.0507313,-173.04345,22.847718)"
       d="m 254,71.427546 24.88622,14.368068 0,28.736136 L 254,128.89982 l -24.88622,-14.36807 0,-28.736137 z" />
    <path
       sodipodi:type="star"
       style="fill:#efefef;fill-opacity:1;stroke:#4d6278;stroke-width:1.00891;stroke-linecap:round;stroke-linejoin:round;stroke-miterlimit:4;stroke-dasharray:none;stroke-dashoffset:74.47;stroke-opacity:1;paint-order:stroke markers fill"
       id="path953-9-6"
       sodipodi:sides="6"
       sodipodi:cx="254"
       sodipodi:cy="100.16368"
       sodipodi:r1="28.736135"
       sodipodi:r2="24.886223"
       sodipodi:arg1="-1.5707963"
       sodipodi:arg2="-1.0471976"
       inkscape:flatsided="true"
       inkscape:rounded="0"
       inkscape:randomized="0"
       transform="matrix(1.0472493,0,0,1.0507313,-120.91929,22.847719)"
       d="m 254,71.427546 24.88622,14.368068 0,28.736136 L 254,128.89982 l -24.88622,-14.36807 0,-28.736137 z" />
    <path
       sodipodi:type="star"
       style="fill:#efefef;fill-opacity:1;stroke:#4d6278;stroke-width:1.00891;stroke-linecap:round;stroke-linejoin:round;stroke-miterlimit:4;stroke-dasharray:none;stroke-dashoffset:74.47;stroke-opacity:1;paint-order:stroke markers fill"
       id="path953-9-6-6"
       sodipodi:sides="6"
       sodipodi:cx="254"
       sodipodi:cy="100.16368"
       sodipodi:r1="28.736135"
       sodipodi:r2="24.886223"
       sodipodi:arg1="-1.5707963"
       sodipodi:arg2="-1.0471976"
       inkscape:flatsided="true"
       inkscape:rounded="0"
       inkscape:randomized="0"
       transform="matrix(1.0472493,0,0,1.0507313,-94.85721,-22.443216)"
       d="m 254,71.427546 24.88622,14.368068 0,28.736136 L 254,128.89982 l -24.88622,-14.36807 0,-28.736137 z" />
    <path
       sodipodi:type="star"
       style="fill:#efefef;fill-opacity:1;stroke:#4d6278;stroke-width:1.00891;stroke-linecap:round;stroke-linejoin:round;stroke-miterlimit:4;stroke-dasharray:none;stroke-dashoffset:74.47;stroke-opacity:1;paint-order:stroke markers fill"
       id="path953-9-6-6-6"
       sodipodi:sides="6"
       sodipodi:cx="254"
       sodipodi:cy="100.16368"
       sodipodi:r1="28.736135"
       sodipodi:r2="24.886223"
       sodipodi:arg1="-1.5707963"
       sodipodi:arg2="-1.0471976"
       inkscape:flatsided="true"
       inkscape:rounded="0"
       inkscape:randomized="0"
       transform="matrix(1.0472493,0,0,1.0507313,-225.16761,22.847717)"
       d="m 254,71.427546 24.88622,14.368068 0,28.736136 L 254,128.89982 l -24.88622,-14.36807 0,-28.736137 z" />
    <path
       sodipodi:type="star"
       style="fill:#efefef;fill-opacity:1;stroke:#4d6278;stroke-width:1.00891;stroke-linecap:round;stroke-linejoin:round;stroke-miterlimit:4;stroke-dasharray:none;stroke-dashoffset:74.47;stroke-opacity:1;paint-order:stroke markers fill"
       id="path953-9-6-6-6-2"
       sodipodi:sides="6"
       sodipodi:cx="254"
       sodipodi:cy="100.16368"
       sodipodi:r1="28.736135"
       sodipodi:r2="24.886223"
       sodipodi:arg1="-1.5707963"
       sodipodi:arg2="-1.0471976"
       inkscape:flatsided="true"
       inkscape:rounded="0"
       inkscape:randomized="0"
       transform="matrix(1.0472493,0,0,1.0507313,-68.795131,22.84772)"
       d="m 254,71.427546 24.88622,14.368068 0,28.736136 L 254,128.89982 l -24.88622,-14.36807 0,-28.736137 z" />
    <path
       sodipodi:type="star"
       style="fill:#efefef;fill-opacity:1;stroke:#4d6278;stroke-width:1.00891;stroke-linecap:round;stroke-linejoin:round;stroke-miterlimit:4;stroke-dasharray:none;stroke-dashoffset:74.47;stroke-opacity:1;paint-order:stroke markers fill"
       id="path953-9-6-6-6-2-0"
       sodipodi:sides="6"
       sodipodi:cx="254"
       sodipodi:cy="100.16368"
       sodipodi:r1="28.736135"
       sodipodi:r2="24.886223"
       sodipodi:arg1="-1.5707963"
       sodipodi:arg2="-1.0471976"
       inkscape:flatsided="true"
       inkscape:rounded="0"
       inkscape:randomized="0"
       transform="matrix(1.0472493,0,0,1.0507313,-42.73305,-22.443215)"
       d="m 254,71.427546 24.88622,14.368068 0,28.736136 L 254,128.89982 l -24.88622,-14.36807 0,-28.736137 z" />
    <path
       sodipodi:type="star"
       style="fill:#efefef;fill-opacity:1;stroke:#4d6278;stroke-width:1.00891;stroke-linecap:round;stroke-linejoin:round;stroke-miterlimit:4;stroke-dasharray:none;stroke-dashoffset:74.47;stroke-opacity:1;paint-order:stroke markers fill"
       id="path953-9-6-6-6-2-0-5"
       sodipodi:sides="6"
       sodipodi:cx="254"
       sodipodi:cy="100.16368"
       sodipodi:r1="28.736135"
       sodipodi:r2="24.886223"
       sodipodi:arg1="-1.5707963"
       sodipodi:arg2="-1.0471976"
       inkscape:flatsided="true"
       inkscape:rounded="0"
       inkscape:randomized="0"
       transform="matrix(1.0472493,0,0,1.0507313,-16.670971,22.847721)"
       d="m 254,71.427546 24.88622,14.368068 0,28.736136 L 254,128.89982 l -24.88622,-14.36807 0,-28.736137 z" />
    <path
       sodipodi:type="star"
       style="fill:#efefef;fill-opacity:1;stroke:#4d6278;stroke-width:1.00891;stroke-linecap:round;stroke-linejoin:round;stroke-miterlimit:4;stroke-dasharray:none;stroke-dashoffset:74.47;stroke-opacity:1;paint-order:stroke markers fill"
       id="path953-9-6-6-6-2-0-5-4"
       sodipodi:sides="6"
       sodipodi:cx="254"
       sodipodi:cy="100.16368"
       sodipodi:r1="28.736135"
       sodipodi:r2="24.886223"
       sodipodi:arg1="-1.5707963"
       sodipodi:arg2="-1.0471976"
       inkscape:flatsided="true"
       inkscape:rounded="0"
       inkscape:randomized="0"
       transform="matrix(1.0472493,0,0,1.0507313,9.3911104,-22.443214)"
       d="m 254,71.427546 24.88622,14.368068 0,28.736136 L 254,128.89982 l -24.88622,-14.36807 0,-28.736137 z" />
    <g
       id="g1364">
      <path
         d="m 112.90384,80.320271 h 3.49781 v 3.4978 a 0.49968599,0.49968599 0 0 0 0.49968,0.49969 h 2.99812 a 0.49968599,0.49968599 0 0 0 0.49968,-0.49969 v -3.4978 h 3.49781 a 0.49968599,0.49968599 0 0 0 0.49968,-0.49969 v -2.99811 a 0.49968599,0.49968599 0 0 0 -0.49968,-0.49969 h -3.49781 v -3.4978 a 0.49968599,0.49968599 0 0 0 -0.49968,-0.49969 h -2.99812 a 0.49968599,0.49968599 0 0 0 -0.49968,0.49969 v 3.4978 h -3.49781 a 0.49968599,0.49968599 0 0 0 -0.49968,0.49969 v 2.99811 a 0.49968599,0.49968599 0 0 0 0.49968,0.49969 z m 21.4865,-10.99309 a 3.0068604,3.0068604 0 0 0 -2.99811,-2.99812 h -25.98367 a 3.0068604,3.0068604 0 0 0 -2.99812,2.99812 v 20.98681 h 31.9799 z m -3.99749,16.98932 h -23.98492 v -15.98995 h 23.98492 z m 6.99561,5.99623 h -15.14424 c -0.0462,1.23735 -0.91879,1.99874 -2.04496,1.99874 h -3.79761 c -1.16739,0 -2.06121,-1.09118 -2.04684,-1.99874 H 99.412322 a 0.99937201,0.99937201 0 0 0 -0.99937,0.99937 v 0.99937 a 4.0093556,4.0093556 0 0 0 3.997488,3.99749 h 31.9799 a 4.0093556,4.0093556 0 0 0 3.99749,-3.99749 v -0.99937 a 0.99937201,0.99937201 0 0 0 -0.99937,-0.99937 z"
         id="path1189"
         style="stroke-width:0.264583" />
    </g>
    <path
       d="m 191.41283,111.06998 c -1.97995,0 -3.62219,1.3575 -4.09234,3.19177 -0.053,0 -0.0927,-0.0132 -0.14569,-0.0132 -2.33753,0 -4.23803,1.90049 -4.23803,4.23803 0,0.31785 0.0397,0.62908 0.11258,0.92707 -1.9336,0.79463 -3.2911,2.6885 -3.2911,4.90022 0,0.83436 0.2119,1.60913 0.54962,2.31105 -1.58926,0.91383 -2.66863,2.60904 -2.66863,4.57575 0,2.2051 1.35087,4.09897 3.27123,4.8936 -0.0596,0.30461 -0.0927,0.61584 -0.0927,0.93369 0,2.63553 2.13226,4.76779 4.76778,4.76779 0.2715,0 0.53638,-0.0331 0.79463,-0.0795 0.63571,1.88725 2.39714,3.25799 4.50291,3.25799 2.63553,0 4.76779,-2.13226 4.76779,-4.76778 v -24.89844 c 0,-2.33753 -1.90049,-4.23803 -4.23804,-4.23803 z m 24.36868,20.13065 c 0,-1.96671 -1.07937,-3.66192 -2.66863,-4.57575 0.34434,-0.70192 0.54962,-1.47669 0.54962,-2.31105 0,-2.21172 -1.3575,-4.10559 -3.2911,-4.90022 0.0662,-0.29799 0.11257,-0.60922 0.11257,-0.92707 0,-2.33754 -1.90049,-4.23803 -4.23803,-4.23803 -0.053,0 -0.0993,0.0132 -0.14568,0.0132 -0.47016,-1.83427 -2.11239,-3.19177 -4.09235,-3.19177 -2.33754,0 -4.23803,1.89387 -4.23803,4.23803 v 24.89844 c 0,2.63552 2.13226,4.76778 4.76779,4.76778 2.10577,0 3.8672,-1.37074 4.5029,-3.25799 0.25826,0.0464 0.52314,0.0795 0.79463,0.0795 2.63553,0 4.76779,-2.13226 4.76779,-4.76779 0,-0.31785 -0.0331,-0.62908 -0.0927,-0.93369 1.92036,-0.79463 3.27123,-2.6885 3.27123,-4.8936 z"
       id="path1200"
       style="stroke-width:0.264583" />
    <path
       d="m 203.47586,126.71934 -0.30315,0.52865 c -0.1109,0.19594 -0.3475,0.27727 -0.55822,0.19963 -0.43624,-0.16266 -0.8355,-0.39556 -1.18671,-0.68762 -0.17005,-0.14048 -0.21441,-0.38817 -0.10351,-0.58041 l 0.30315,-0.52865 c -0.25509,-0.29575 -0.45472,-0.63956 -0.5878,-1.01295 h -0.60999 c -0.22181,0 -0.41405,-0.15896 -0.45102,-0.38078 -0.0739,-0.44362 -0.0776,-0.90943 0,-1.37154 0.037,-0.22181 0.22921,-0.38447 0.45102,-0.38447 h 0.60999 c 0.13308,-0.37339 0.33271,-0.7172 0.5878,-1.01295 l -0.30315,-0.52865 c -0.1109,-0.19224 -0.0702,-0.43993 0.10351,-0.58041 0.35121,-0.29206 0.75417,-0.52496 1.18671,-0.68762 0.21072,-0.0776 0.44732,0.004 0.55822,0.19963 l 0.30315,0.52865 c 0.38817,-0.0702 0.78374,-0.0702 1.17191,0 l 0.30315,-0.52865 c 0.1109,-0.19594 0.3475,-0.27726 0.55822,-0.19963 0.43623,0.16266 0.8355,0.39556 1.1867,0.68762 0.17006,0.14048 0.21442,0.38817 0.10351,0.58041 l -0.30314,0.52865 c 0.25508,0.29575 0.45472,0.63956 0.5878,1.01295 h 0.60999 c 0.22181,0 0.41405,0.15896 0.45102,0.38078 0.0739,0.44362 0.0776,0.90942 0,1.37154 -0.037,0.22181 -0.22921,0.38447 -0.45102,0.38447 h -0.60999 c -0.13308,0.37339 -0.33272,0.7172 -0.5878,1.01295 l 0.30314,0.52865 c 0.11091,0.19224 0.0702,0.43993 -0.10351,0.58041 -0.3512,0.29206 -0.75416,0.52496 -1.1867,0.68762 -0.21072,0.0776 -0.44732,-0.004 -0.55822,-0.19963 l -0.30315,-0.52865 c -0.38448,0.0702 -0.78374,0.0702 -1.17191,0 z m -0.38818,-2.17377 c 1.4233,1.09428 3.04624,-0.52865 1.95196,-1.95195 -1.4233,-1.09797 -3.04623,0.52865 -1.95196,1.95195 z m 0.38818,13.22374 -0.30315,0.52866 c -0.1109,0.19594 -0.3475,0.27726 -0.55822,0.19963 -0.43624,-0.16266 -0.8355,-0.39556 -1.18671,-0.68762 -0.17005,-0.14048 -0.21441,-0.38817 -0.10351,-0.58041 l 0.30315,-0.52865 c -0.25509,-0.29575 -0.45472,-0.63956 -0.5878,-1.01295 h -0.60999 c -0.22181,0 -0.41405,-0.15896 -0.45102,-0.38078 -0.0739,-0.44362 -0.0776,-0.90943 0,-1.37154 0.037,-0.22181 0.22921,-0.38448 0.45102,-0.38448 h 0.60999 c 0.13308,-0.37338 0.33271,-0.71719 0.5878,-1.01294 l -0.30315,-0.52865 c -0.1109,-0.19225 -0.0702,-0.43994 0.10351,-0.58042 0.35121,-0.29205 0.75417,-0.52495 1.18671,-0.68762 0.21072,-0.0776 0.44732,0.004 0.55822,0.19964 l 0.30315,0.52865 c 0.38817,-0.0702 0.78374,-0.0702 1.17191,0 l 0.30315,-0.52865 c 0.1109,-0.19594 0.3475,-0.27727 0.55822,-0.19964 0.43623,0.16267 0.8355,0.39557 1.1867,0.68762 0.17006,0.14048 0.21442,0.38817 0.10351,0.58042 l -0.30314,0.52865 c 0.25508,0.29575 0.45472,0.63956 0.5878,1.01294 h 0.60999 c 0.22181,0 0.41405,0.15897 0.45102,0.38078 0.0739,0.44363 0.0776,0.90944 0,1.37154 -0.037,0.22182 -0.22921,0.38448 -0.45102,0.38448 h -0.60999 c -0.13308,0.37339 -0.33272,0.7172 -0.5878,1.01295 l 0.30314,0.52865 c 0.11091,0.19224 0.0702,0.43993 -0.10351,0.58041 -0.3512,0.29206 -0.75416,0.52496 -1.1867,0.68762 -0.21072,0.0776 -0.44732,-0.004 -0.55822,-0.19963 l -0.30315,-0.52866 c -0.38448,0.0703 -0.78374,0.0703 -1.17191,0 z m -0.38818,-2.17746 c 1.4233,1.09428 3.04624,-0.52865 1.95196,-1.95195 -1.4233,-1.09428 -3.04623,0.52865 -1.95196,1.95195 z"
       id="path1211"
       style="fill:#ffffff;fill-opacity:1;stroke-width:0.264584"
       sodipodi:nodetypes="cccccccsscsccccccccccccccsscsccccccccccccccccccsscsccccccccccccccsscsccccccccccc" />
    <path
       style="fill:#ed5b00;fill-opacity:1;stroke-width:0.264584"
       d="m 31.00734,130.87562 h 2.71749 v -1.81166 h -2.71749 z"
       id="path1353" />
    <path
       style="stroke-width:0.264584"
       d="m 41.42436,132.68727 c -1.50027,0 -2.71747,-1.2172 -2.71747,-2.71747 0,-1.50028 1.2172,-2.71749 2.71747,-2.71749 1.50028,0 2.71749,1.21721 2.71749,2.71749 0,1.50027 -1.21721,2.71747 -2.71749,2.71747 z"
       id="path1351" />
    <path
       style="fill:#00419c;fill-opacity:1;stroke-width:0.264584"
       d="m 55.01178,134.49893 c -0.81525,0 -1.56255,0.28307 -2.16832,0.73599 l -5.43497,-3.26098 c 0.21513,-0.63408 0.35667,-1.30213 0.35667,-2.00981 0,-3.50442 -2.83638,-6.34079 -6.3408,-6.34079 -0.47555,0 -0.93979,0.0623 -1.38138,0.16418 l -2.30986,-4.94808 c 0.60011,-0.64541 0.97377,-1.50595 0.97377,-2.45706 0,-1.99848 -1.62483,-3.62331 -3.62331,-3.62331 -1.99849,0 -3.62331,1.62483 -3.62331,3.62331 0,1.99849 1.62482,3.62331 3.62331,3.62331 0.0623,0 0.11889,-0.017 0.18116,-0.017 l 2.32118,4.97073 c -1.5116,1.15494 -2.50234,2.96093 -2.50234,5.01036 0,3.50442 2.83636,6.3408 6.34078,6.3408 1.81732,0 3.44215,-0.77562 4.59708,-1.99849 l 5.42365,3.25532 c -0.0283,0.18116 -0.0566,0.368 -0.0566,0.55482 0,1.99849 1.62484,3.62331 3.62332,3.62331 1.99847,0 3.62331,-1.62482 3.62331,-3.62331 0,-1.99848 -1.62484,-3.62331 -3.62331,-3.62331 z"
       id="path1349" />
    <path
       style="fill:#009976;fill-opacity:1;stroke-width:0.264584"
       d="m 51.47906,124.24044 -1.087,-1.44933 -2.71748,2.03811 1.08699,1.44933 z"
       id="path1347" />
    <path
       style="fill:#ed5b00;fill-opacity:1;stroke-width:0.264584"
       d="m 26.0253,126.34649 c -1.99848,0 -3.62332,1.62482 -3.62332,3.62331 0,1.99848 1.62484,3.62331 3.62332,3.62331 1.99848,0 3.62331,-1.62483 3.62331,-3.62331 0,-1.99849 -1.62483,-3.62331 -3.62331,-3.62331 z"
       id="path1345" />
    <path
       style="fill:#009976;fill-opacity:1;stroke-width:0.264584"
       d="m 55.01178,123.629 c 1.99848,0 3.62331,-1.62483 3.62331,-3.62331 0,-1.99848 -1.62483,-3.62331 -3.62331,-3.62331 -1.99848,0 -3.62331,1.62483 -3.62331,3.62331 0,1.99848 1.62483,3.62331 3.62331,3.62331 z"
       id="path1245" />
    <path
       style="fill:#00419c;fill-opacity:1;stroke-width:0.264584"
       d="m 158.36467,88.976736 h -3.90394 c -0.53923,0 -0.97598,0.436752 -0.97598,0.975985 v 7.807884 c 0,0.539233 0.43675,0.975985 0.97598,0.975985 h 3.90394 c 0.53924,0 0.97599,-0.436752 0.97599,-0.975985 v -7.807884 c 0,-0.539233 -0.43675,-0.975985 -0.97599,-0.975985 z"
       id="path1341" />
    <path
       style="fill:#009976;fill-opacity:1;stroke-width:0.264584"
       d="m 168.12453,79.216878 h -3.90394 c -0.53923,0 -0.97599,0.436753 -0.97599,0.975985 v 17.567742 c 0,0.539233 0.43676,0.975985 0.97599,0.975985 h 3.90394 c 0.53923,0 0.97599,-0.436752 0.97599,-0.975985 V 80.192863 c 0,-0.539232 -0.43676,-0.975985 -0.97599,-0.975985 z"
       id="path1339" />
    <path
       style="fill:#009976;fill-opacity:1;stroke-width:0.264584"
       d="m 187.64424,79.216878 h -3.90394 c -0.53923,0 -0.97598,0.436753 -0.97598,0.975985 v 17.567742 c 0,0.539233 0.43675,0.975985 0.97598,0.975985 h 3.90394 c 0.53924,0 0.97599,-0.436752 0.97599,-0.975985 V 80.192863 c 0,-0.539232 -0.43675,-0.975985 -0.97599,-0.975985 z"
       id="path1337" />
    <path
       style="fill:#00419c;fill-opacity:1;stroke-width:0.264584"
       d="m 177.88439,87.024763 h -3.90395 c -0.53923,0 -0.97598,0.436755 -0.97598,0.975985 v 9.759857 c 0,0.539233 0.43675,0.975985 0.97598,0.975985 h 3.90395 c 0.53923,0 0.97598,-0.436752 0.97598,-0.975985 v -9.759857 c 0,-0.53923 -0.43675,-0.975985 -0.97598,-0.975985 z"
       id="path1335" />
    <path
       style="fill:#ed5b00;fill-opacity:1;stroke-width:0.264584"
       d="m 184.63211,73.155397 c 0.33,0.128708 0.68502,0.205567 1.06016,0.205567 1.61709,0 2.92796,-1.310871 2.92796,-2.927958 0,-1.617086 -1.31087,-2.927957 -2.92796,-2.927957 -1.61708,0 -2.92795,1.310871 -2.92795,2.927957 0,0.148228 0.0226,0.290356 0.0433,0.432484 l -5.81565,4.652402 c -0.32939,-0.128708 -0.68502,-0.205567 -1.06016,-0.205567 -0.37515,0 -0.73016,0.07686 -1.06017,0.205567 L 169.05721,70.8661 c 0.0213,-0.142128 0.0433,-0.284866 0.0433,-0.433094 0,-1.617086 -1.31087,-2.927957 -2.92796,-2.927957 -1.61709,0 -2.92796,1.310871 -2.92796,2.927957 0,0.260467 0.0451,0.508733 0.10858,0.749069 l -6.19141,6.19141 c -0.24033,-0.06344 -0.4886,-0.108579 -0.74907,-0.108579 -1.61708,0 -2.92795,1.310871 -2.92795,2.927957 0,1.617087 1.31087,2.927958 2.92795,2.927958 1.61709,0 2.92796,-1.310871 2.92796,-2.927958 0,-0.260466 -0.0451,-0.508732 -0.10858,-0.749069 l 6.19141,-6.191409 c 0.24034,0.06344 0.4886,0.108579 0.74907,0.108579 0.37514,0 0.73016,-0.07686 1.06017,-0.205567 l 5.81565,4.652401 c -0.0213,0.142128 -0.0433,0.284866 -0.0433,0.433094 0,1.617086 1.31087,2.927957 2.92796,2.927957 1.61708,0 2.92795,-1.310871 2.92795,-2.927957 0,-0.148228 -0.0226,-0.290356 -0.0433,-0.432484 z"
       id="path1256" />
    <path
       style="stroke-width:0.264582"
       d="m 158.99161,142.15363 h -28.26305 c -1.11494,0 -2.01879,-0.90385 -2.01879,-2.01879 v -4.03758 c 0,-1.11494 0.90385,-2.01879 2.01879,-2.01879 h 28.26305 c 1.11494,0 2.01879,0.90385 2.01879,2.01879 v 4.03758 c 0,1.11494 -0.90385,2.01879 -2.01879,2.01879 z"
       id="path1402" />
    <path
       style="fill:#009976;fill-opacity:1;stroke-width:0.79374999;stroke-miterlimit:4;stroke-dasharray:none;stroke:#efefef;stroke-opacity:1;stroke-linejoin:round"
       d="m 151.92585,136.60196 c -0.83622,0 -1.51409,0.67787 -1.51409,1.51409 0,0.83622 0.67787,1.51409 1.51409,1.51409 0.83622,0 1.51409,-0.67787 1.51409,-1.51409 0,-0.83622 -0.67787,-1.51409 -1.51409,-1.51409 z"
       id="path1406" />
    <path
       style="fill:#009976;fill-opacity:1;stroke-width:0.79374999;stroke-miterlimit:4;stroke-dasharray:none;stroke:#efefef;stroke-opacity:1;stroke-linejoin:round"
       d="m 155.96343,136.60196 c -0.83622,0 -1.5141,0.67787 -1.5141,1.51409 0,0.83622 0.67788,1.51409 1.5141,1.51409 0.83622,0 1.51409,-0.67787 1.51409,-1.51409 0,-0.83622 -0.67787,-1.51409 -1.51409,-1.51409 z"
       id="path1404" />
    <path
       style="stroke-width:0.264582"
       d="m 158.99161,132.05968 h -28.26305 c -1.11494,0 -2.01879,-0.90385 -2.01879,-2.01879 v -4.03757 c 0,-1.11494 0.90385,-2.01879 2.01879,-2.01879 h 28.26305 c 1.11494,0 2.01879,0.90385 2.01879,2.01879 v 4.03757 c 0,1.11494 -0.90385,2.01879 -2.01879,2.01879 z"
       id="path1396" />
    <path
       style="fill:#ed5b00;fill-opacity:1;stroke-width:0.79374999;stroke-miterlimit:4;stroke-dasharray:none;stroke:#efefef;stroke-opacity:1;stroke-linejoin:round"
       d="m 151.92585,126.50801 c -0.83622,0 -1.51409,0.67788 -1.51409,1.51409 0,0.83622 0.67787,1.5141 1.51409,1.5141 0.83622,0 1.51409,-0.67788 1.51409,-1.5141 0,-0.83621 -0.67787,-1.51409 -1.51409,-1.51409 z"
       id="path1400" />
    <path
       style="fill:#ed5b00;fill-opacity:1;stroke-width:0.79374999;stroke-miterlimit:4;stroke-dasharray:none;stroke:#efefef;stroke-opacity:1;stroke-linejoin:round"
       d="m 155.96343,126.50801 c -0.83622,0 -1.5141,0.67788 -1.5141,1.51409 0,0.83622 0.67788,1.5141 1.5141,1.5141 0.83622,0 1.51409,-0.67788 1.51409,-1.5141 0,-0.83621 -0.67787,-1.51409 -1.51409,-1.51409 z"
       id="path1398" />
    <path
       style="stroke-width:0.264582"
       d="m 158.99161,121.96574 h -28.26305 c -1.11494,0 -2.01879,-0.90385 -2.01879,-2.01879 v -4.03758 c 0,-1.11494 0.90385,-2.01879 2.01879,-2.01879 h 28.26305 c 1.11494,0 2.01879,0.90385 2.01879,2.01879 v 4.03758 c 0,1.11494 -0.90385,2.01879 -2.01879,2.01879 z"
       id="path1267" />
    <path
       style="fill:#009976;fill-opacity:1;stroke-width:0.79374999;stroke-miterlimit:4;stroke-dasharray:none;stroke:#efefef;stroke-opacity:1;stroke-linejoin:round"
       d="m 151.92585,116.41407 c -0.83622,0 -1.51409,0.67787 -1.51409,1.51409 0,0.83622 0.67787,1.51409 1.51409,1.51409 0.83622,0 1.51409,-0.67787 1.51409,-1.51409 0,-0.83622 -0.67787,-1.51409 -1.51409,-1.51409 z"
       id="path1394" />
    <path
       style="fill:#009976;fill-opacity:1;stroke-width:0.79374999;stroke-miterlimit:4;stroke-dasharray:none;stroke:#efefef;stroke-opacity:1;stroke-linejoin:round"
       d="m 155.96343,116.41407 c -0.83622,0 -1.5141,0.67787 -1.5141,1.51409 0,0.83622 0.67788,1.51409 1.5141,1.51409 0.83622,0 1.51409,-0.67787 1.51409,-1.51409 0,-0.83622 -0.67787,-1.51409 -1.51409,-1.51409 z"
       id="path1392" />
    <g
       id="g1331"
       transform="matrix(0.19187795,0,0,0.19187795,35.135261,46.655526)"
       style="stroke-width:5.21164">
      <path
         d="m 141.10891,183.07962 a 33.866666,33.866666 0 1 0 -33.86666,-33.86666 33.866666,33.866666 0 0 0 33.86666,33.86666 z m 16.93334,46.56667 c 0,-14.52563 12.78995,-26.29694 30.28156,-29.03008 -6.27856,-5.57742 -14.45419,-9.06992 -23.51088,-9.06992 h -4.41325 a 46.069249,46.069249 0 0 1 -38.58154,0 h -4.41325 a 35.567937,35.567937 0 0 0 -35.562643,35.56264 v 11.00403 a 12.7,12.7 0 0 0 12.7,12.69999 h 74.723623 c -6.95589,-5.34193 -11.22362,-12.78995 -11.22362,-21.16666 z"
         class="fa-secondary"
         id="path1304"
         style="opacity:1;fill:#ed5b00;fill-opacity:1;stroke-width:1.37891" />
      <path
         d="m 240.31179,141.09819 -25.54023,7.54327 a 8.4666666,8.4666666 0 0 0 -5.92931,8.06979 v 53.88504 a 39.359416,39.359416 0 0 0 -12.7,-2.11667 c -16.36713,0 -29.63334,9.47738 -29.63334,21.16667 0,11.68929 13.26621,21.16666 29.63334,21.16666 16.36712,0 29.63333,-9.47737 29.63333,-21.16666 v -49.70198 l 19.31458,-5.65944 a 8.4666666,8.4666666 0 0 0 6.08542,-8.12535 v -16.94656 a 8.4666666,8.4666666 0 0 0 -10.86379,-8.11477 z"
         class="fa-primary"
         id="path1306"
         style="fill:#000000;fill-opacity:1;stroke-width:1.37891" />
    </g>
    <g
       id="g1437"
       transform="matrix(0.05744945,0,0,0.05744945,231.51318,113.84958)"
       style="stroke-width:4.6055">
      <path
         d="m 176,352 a 80,80 0 1 0 80,80 80,80 0 0 0 -80,-80 z m 288,0 a 80,80 0 1 0 80,80 80,80 0 0 0 -80,-80 z"
         class="fa-secondary"
         id="path1424"
         style="opacity:1;fill:#ed5b00;fill-opacity:1;stroke-width:4.6055" />
      <path
         d="M 624,352 H 608 V 243.9 A 48,48 0 0 0 593.9,210 L 494,110.1 A 48,48 0 0 0 460.1,96 H 416 V 48 A 48,48 0 0 0 368,0 H 48 A 48,48 0 0 0 0,48 v 320 a 48,48 0 0 0 48,48 H 66.16 C 74,361.93 119.78,320 176,320 c 56.22,0 102.54,41.86 110.38,96 h 67.24 c 7.85,-54.14 54.1,-96 110.38,-96 56.28,0 102,41.93 109.84,96 H 624 a 16,16 0 0 0 16,-16 V 368 A 16,16 0 0 0 624,352 Z M 560,256 H 416 V 144 h 44.1 l 99.9,99.9 z"
         class="fa-primary"
         id="path1426"
         style="stroke-width:4.6055" />
    </g>
    <path
       style="fill:#009976;fill-opacity:1;stroke-width:0.79374999;stroke:#efefef;stroke-opacity:1;stroke-miterlimit:4;stroke-dasharray:none;stroke-linejoin:round"
       d="m 248.33765,119.87947 a 0.5966696,0.5966696 0 0 0 -0.87104,-0.0476 l -0.82605,0.80681 a 0.54839887,0.54839887 0 0 0 -0.0526,0.73713 3.8975882,3.8975882 0 0 1 0,4.88658 0.54876182,0.54876182 0 0 0 0.0526,0.73749 l 0.82605,0.80646 a 0.5966696,0.5966696 0 0 0 0.87104,-0.0476 6.1252998,6.1252998 0 0 0 0,-7.87939 z"
       id="path1589" />
    <path
       style="fill:#009976;fill-opacity:1;stroke-width:0.79374999;stroke:#efefef;stroke-opacity:1;stroke-miterlimit:4;stroke-dasharray:none;stroke-linejoin:round"
       d="m 251.2085,117.04856 a 0.59558079,0.59558079 0 0 0 -0.85508,-0.0363 l -0.81081,0.79374 c -0.21776,0.21233 -0.24208,0.55784 -0.0391,0.78359 a 7.8013461,7.8013461 0 0 1 0,10.45696 c -0.20288,0.22575 -0.17822,0.57126 0.0391,0.78359 l 0.81081,0.79193 a 0.59558079,0.59558079 0 0 0 0.85508,-0.0363 c 1.70035,-1.86804 2.62911,-4.24745 2.62911,-6.76769 0,-2.52024 -0.92876,-4.89966 -2.62911,-6.76952 z"
       id="path1587" />
    <path
       style="fill:#009976;fill-opacity:1;stroke-width:0.79374999;stroke:#efefef;stroke-opacity:1;stroke-miterlimit:4;stroke-dasharray:none;stroke-linejoin:round"
       d="m 240.12837,120.63765 -0.82605,-0.8068 a 0.5966696,0.5966696 0 0 0 -0.87104,0.0476 6.1252998,6.1252998 0 0 0 0,7.87938 0.5966696,0.5966696 0 0 0 0.87104,0.0476 l 0.82605,-0.80646 a 0.54876182,0.54876182 0 0 0 0.0526,-0.73749 3.8975882,3.8975882 0 0 1 0,-4.88658 0.54839887,0.54839887 0 0 0 -0.0526,-0.73713 z"
       id="path1585" />
    <path
       style="fill:#009976;fill-opacity:1;stroke-width:0.79374999;stroke:#efefef;stroke-opacity:1;stroke-miterlimit:4;stroke-dasharray:none;stroke-linejoin:round"
       d="m 235.25519,123.81808 a 7.7777553,7.7777553 0 0 1 2.01141,-5.22849 c 0.20289,-0.22574 0.17821,-0.57126 -0.0391,-0.78357 l -0.81079,-0.79193 a 0.59558079,0.59558079 0 0 0 -0.85507,0.0363 c -1.70038,1.86805 -2.62913,4.24747 -2.62913,6.7677 0,2.52025 0.92875,4.89966 2.62913,6.76952 a 0.59558079,0.59558079 0 0 0 0.85507,0.0363 l 0.81079,-0.79194 c 0.21778,-0.21231 0.2421,-0.55784 0.0391,-0.78357 a 7.7777553,7.7777553 0 0 1 -2.01141,-5.23029 z"
       id="path1583" />
    <path
       style="fill:#00419c;fill-opacity:1;stroke-width:1.05833332;stroke:#efefef;stroke-opacity:1;stroke-miterlimit:4;stroke-dasharray:none;stroke-linejoin:round"
       d="m 243.385,121.78563 a 2.0324511,2.0324511 0 1 0 2.03246,2.03245 2.0324511,2.0324511 0 0 0 -2.03246,-2.03245 z"
       id="path1439" />
    <g
       id="g1467"
       transform="matrix(0.22885675,0,0,0.22885675,173.27421,40.90002)"
       style="stroke-width:4.36954">
      <path
         style="fill:#ed5b00;fill-opacity:1;stroke-width:1.15611"
         d="m 281.83234,228.09639 c 6.32354,-6.87916 10.05417,-15.26645 10.05417,-24.34166 0,-17.70063 -14.15521,-32.86125 -34.21063,-39.18479 0.23813,1.74625 0.34396,3.51896 0.34396,5.31812 0,28.01938 -28.49563,50.8 -63.5,50.8 -2.8575,0 -5.63563,-0.21167 -8.38729,-0.50271 8.33437,15.21354 27.91354,25.90271 50.72062,25.90271 10.84792,0 20.92855,-2.43417 29.44813,-6.61459 5.76792,3.36021 13.78479,6.61459 23.46854,6.61459 0.84667,0 1.61396,-0.50271 1.93146,-1.27 0.34396,-0.76729 0.18521,-1.66688 -0.39688,-2.30188 -0.0794,-0.0794 -5.92666,-6.40291 -9.47208,-14.41979 z"
         id="path1463" />
      <path
         style="stroke-width:1.15611"
         d="m 249.55317,169.88806 c 0,-23.38916 -24.63271,-42.33333 -55.03333,-42.33333 -30.40063,0 -55.03333,18.94417 -55.03333,42.33333 0,9.07521 3.73062,17.43604 10.05416,24.34167 -3.54541,7.99042 -9.39271,14.34042 -9.47208,14.41979 -0.58208,0.60854 -0.74083,1.50813 -0.39688,2.30188 0.34396,0.79375 1.0848,1.27 1.93146,1.27 9.68375,0 17.70063,-3.25438 23.46854,-6.61459 8.51959,4.15396 18.60021,6.61459 29.44813,6.61459 30.40062,0 55.03333,-18.94417 55.03333,-42.33334 z"
         id="path1450" />
    </g>
    <path
       d="m 108.56836,125.33483 c 0.26294,-0.6862 0.41044,-1.43654 0.41044,-2.21893 0,-3.39896 -2.75764,-6.1566 -6.1566,-6.1566 -1.26338,0 -2.44339,0.38479 -3.418189,1.03893 -1.776434,-3.0783 -5.092017,-5.14333 -8.894996,-5.14333 -5.669198,0 -10.260991,4.5918 -10.260991,10.261 0,0.17315 0.0064,0.3463 0.01283,0.51946 -3.591347,1.26338 -6.169421,4.68799 -6.169421,8.71543 0,5.09843 4.136462,9.23489 9.234891,9.23489 H 106.9266 c 4.53408,0 8.2088,-3.67472 8.2088,-8.20879 0,-3.96973 -2.82178,-7.28531 -6.56704,-8.04206 z"
       id="path1520"
       style="stroke-width:0.264583" />
    <path
       d="M 99.453896,125.05403 H 95.32991 l 1.52237,-4.63859 c 0.142945,-0.54319 -0.268022,-1.07924 -0.829082,-1.07924 h -5.14604 c -0.428838,0 -0.793349,0.31806 -0.850528,0.74332 l -1.143563,8.57673 c -0.0679,0.51461 0.332346,0.97203 0.850525,0.97203 h 4.241909 l -1.647447,6.95073 c -0.128649,0.5432 0.285893,1.05423 0.832658,1.05423 0.300185,0 0.586077,-0.15724 0.743316,-0.42884 l 6.289602,-10.86387 c 0.33235,-0.56821 -0.0786,-1.2865 -0.739734,-1.2865 z"
       id="path1531"
       style="fill:#ed5b00;fill-opacity:1;stroke-width:1.05833332;stroke:#efefef;stroke-opacity:1;stroke-miterlimit:4;stroke-dasharray:none;stroke-linejoin:round" />
    <g
       id="g1567"
       transform="matrix(-0.0578776,0,0,0.0578776,292.0244,67.204163)"
       style="stroke-width:4.57143">
      <path
         style="opacity:1;fill:#ed5b00;fill-opacity:1;stroke-width:27.42857297;stroke:#efefef;stroke-opacity:1;stroke-miterlimit:4;stroke-dasharray:none;stroke-linejoin:round"
         d="m 352,192 a 64,64 0 1 0 -64,-64 64.07,64.07 0 0 0 64,64 z"
         id="path1579" />
      <path
         style="opacity:1;fill:#ed5b00;fill-opacity:1;stroke-width:27.42857297;stroke:#efefef;stroke-opacity:1;stroke-miterlimit:4;stroke-dasharray:none;stroke-linejoin:round"
         d="m 128,192 a 64,64 0 1 0 -64,-64 64.07,64.07 0 0 0 64,64 z"
         id="path1577" />
      <path
         style="opacity:1;fill:#009976;fill-opacity:1;stroke-width:4.57143"
         d="M 368.2,288 H 16 A 16,16 0 0 0 0,304 v 32 a 16,16 0 0 0 16,16 H 64 V 464.2 A 47.81,47.81 0 0 0 111.8,512 H 368.2 A 47.81,47.81 0 0 0 416,464.2 V 335.8 A 47.81,47.81 0 0 0 368.2,288 Z"
         id="path1554" />
      <path
         d="M 535.68,260.59 448,321.07 V 447 l 87.68,60.4 c 17,11.68 40.32,-0.23 40.32,-20.64 V 281.23 C 576,260.9 552.73,248.9 535.68,260.59 Z M 352,0 C 303.43,0 261.69,27.37 240,67.24 218.31,27.37 176.57,0 128,0 a 128,128 0 0 0 0,256 H 352 A 128,128 0 0 0 352,0 Z M 128,192 a 64,64 0 1 1 64,-64 64.07,64.07 0 0 1 -64,64 z m 224,0 a 64,64 0 1 1 64,-64 64.07,64.07 0 0 1 -64,64 z"
         class="fa-primary"
         id="path1556"
         style="stroke-width:4.57143" />
    </g>
  </g>
  <g
     inkscape:groupmode="layer"
     id="layer3"
     inkscape:label="cross">
    <path
       style="fill:#ed5b00;fill-opacity:1;stroke-width:0.264583"
       d="m 112.90384,80.320271 h 3.49781 v 3.4978 a 0.49968599,0.49968599 0 0 0 0.49968,0.49969 h 2.99812 a 0.49968599,0.49968599 0 0 0 0.49968,-0.49969 v -3.4978 h 3.49781 a 0.49968599,0.49968599 0 0 0 0.49968,-0.49969 v -2.99811 a 0.49968599,0.49968599 0 0 0 -0.49968,-0.49969 h -3.49781 v -3.4978 a 0.49968599,0.49968599 0 0 0 -0.49968,-0.49969 h -2.99812 a 0.49968599,0.49968599 0 0 0 -0.49968,0.49969 v 3.4978 h -3.49781 a 0.49968599,0.49968599 0 0 0 -0.49968,0.49969 v 2.99811 a 0.49968599,0.49968599 0 0 0 0.49968,0.49969 z"
       id="path1189-5" />
  </g>
</svg>
