<?xml version="1.0" encoding="UTF-8" standalone="no"?>
<svg
   xmlns:dc="http://purl.org/dc/elements/1.1/"
   xmlns:cc="http://creativecommons.org/ns#"
   xmlns:rdf="http://www.w3.org/1999/02/22-rdf-syntax-ns#"
   xmlns:svg="http://www.w3.org/2000/svg"
   xmlns="http://www.w3.org/2000/svg"
   xmlns:sodipodi="http://sodipodi.sourceforge.net/DTD/sodipodi-0.dtd"
   xmlns:inkscape="http://www.inkscape.org/namespaces/inkscape"
   width="429"
   height="496"
   viewBox="0 0 113.50652 131.23338"
   version="1.1"
   id="svg8"
   inkscape:version="1.0.1 (3bc2e813f5, 2020-09-07)"
   sodipodi:docname="H3logo.svg"
   inkscape:export-filename="C:\Users\h3tec\OneDrive\Pictures\PortfolioPics\H3logo.png"
   inkscape:export-xdpi="96"
   inkscape:export-ydpi="96">
  <defs
     id="defs2">
    <rect
       x="88.332788"
       y="18.174238"
       width="7.2162944"
       height="17.773466"
       id="rect863" />
  </defs>
  <sodipodi:namedview
     id="base"
     pagecolor="#ffffff"
     bordercolor="#666666"
     borderopacity="1.0"
     inkscape:pageopacity="0"
     inkscape:pageshadow="2"
     inkscape:zoom="0.9899495"
     inkscape:cx="225.26458"
     inkscape:cy="213.08184"
     inkscape:document-units="mm"
     inkscape:current-layer="layer1"
     inkscape:document-rotation="0"
     showgrid="false"
     units="px"
     inkscape:window-width="1861"
     inkscape:window-height="1625"
     inkscape:window-x="119"
     inkscape:window-y="309"
     inkscape:window-maximized="0" />
  <metadata
     id="metadata5">
    <rdf:RDF>
      <cc:Work
         rdf:about="">
        <dc:format>image/svg+xml</dc:format>
        <dc:type
           rdf:resource="http://purl.org/dc/dcmitype/StillImage" />
        <dc:title></dc:title>
      </cc:Work>
    </rdf:RDF>
  </metadata>
  <g
     inkscape:label="Layer 1"
     inkscape:groupmode="layer"
     id="layer1">
    <path
       sodipodi:type="star"
       style="fill:#000000;fill-opacity:1;stroke:#eaeaea;stroke-width:0.52916793;stroke-linejoin:round;stroke-miterlimit:2.61313009;stroke-dasharray:none;stroke-dashoffset:74.47;stroke-opacity:1"
       id="path833"
       sodipodi:sides="6"
       sodipodi:cx="56.928406"
       sodipodi:cy="66.282845"
       sodipodi:r1="64.202568"
       sodipodi:r2="55.601055"
       sodipodi:arg1="0.52359878"
       sodipodi:arg2="1.0471976"
       inkscape:flatsided="true"
       inkscape:rounded="0"
       inkscape:randomized="0"
       d="M 112.52946,98.384129 56.928405,130.48541 1.3273507,98.384128 1.327351,34.18156 56.928406,2.0802765 112.52946,34.181561 Z" />
    <g
       id="g849"
       transform="matrix(0.71055791,0,0,0.71055791,-4.6606785,-60.637378)"
       style="stroke-width:1.40734">
      <path
         style="fill:#ed5b00;fill-opacity:1;stroke-width:0.372359"
         d="m 76.301096,183.7952 v -62.78298 c 0,-2.52677 -2.219854,-4.60375 -4.720167,-4.24921 -31.530396,4.45558 -55.631293,32.00136 -54.509459,65.01342 1.153583,33.9037 30.345064,61.70612 64.264647,61.28014 13.335,-0.16669 25.656643,-4.46352 35.787543,-11.64961 2.09021,-1.48166 2.22779,-4.55877 0.41539,-6.37116 z"
         id="path839" />
      <path
         style="fill:#009976;fill-opacity:1;stroke-width:0.372359"
         d="m 152.49051,166.6502 c -2.18016,-31.60713 -27.43729,-56.86425 -59.044414,-59.04442 -2.413,-0.16669 -4.445,1.86796 -4.445,4.28625 v 59.20317 h 59.205814 c 2.41829,0 4.45029,-2.032 4.2836,-4.445 z"
         id="path837" />
      <path
         style="fill:#00419c;fill-opacity:1;stroke-width:0.372359"
         d="M 156.67887,183.7952 H 93.895888 l 41.812102,41.8121 c 1.59809,1.59808 4.22804,1.72773 5.87111,0.17991 10.23937,-9.6467 17.28258,-22.65097 19.34898,-37.2692 0.35454,-2.50296 -1.72244,-4.72281 -4.24921,-4.72281 z"
         id="path2" />
    </g>
    <g
       aria-label="3"
       id="text856"
       style="font-size:50.8001px;line-height:1.25;font-family:'Rockwell Extra Bold';-inkscape-font-specification:'Rockwell Extra Bold, ';stroke-width:0.199899;stroke-miterlimit:4;stroke-dasharray:none"
       transform="matrix(1.3058941,0,0,1.3457442,-36.147089,18.70298)">
      <path
         d="m 87.198644,1.9497248 q 5.010557,0 7.714273,2.1828168 2.728521,2.158012 2.728521,6.2507934 0,4.24161 -3.497468,6.07716 2.058793,0.94258 3.199811,2.629302 1.165823,1.661917 1.165823,4.018367 0,4.638486 -3.150202,7.01974 -3.150201,2.35645 -8.805681,2.35645 -4.911337,0 -8.508024,-1.909964 -0.94258,-0.47129 -0.94258,-1.587503 0,-0.669728 0.421681,-1.785941 0.843361,-2.083598 1.885159,-2.083598 0.198438,0 0.496095,0.124024 1.612308,0.768946 3.323835,1.190627 1.711526,0.42168 3.323834,0.42168 2.629302,0 3.968758,-0.967384 1.339456,-0.99219 1.339456,-2.82774 0,-1.785941 -1.066604,-2.678912 -1.066604,-0.917775 -3.150201,-0.917775 h -2.554888 q -0.868166,0 -1.215432,-0.545704 -0.347266,-0.570509 -0.347266,-2.108403 0,-1.537893 0.347266,-2.108402 0.347266,-0.570509 1.215432,-0.570509 h 1.88516 q 2.207621,0 3.274225,-0.818556 1.091408,-0.818557 1.091408,-2.554888 0,-1.6867221 -1.041799,-2.5548878 -1.041799,-0.8681657 -3.075787,-0.8681657 -1.860355,0 -3.795124,0.5705089 v 1.9595741 q 0,0.8681655 -0.570509,1.2154325 -0.570509,0.347266 -2.108403,0.347266 -1.587503,0 -2.30684,-0.347266 -0.719338,-0.372072 -0.719338,-1.2154325 V 5.2239499 q 0,-1.1162131 1.215432,-1.587503 1.959575,-0.7937516 4.067977,-1.2402368 2.133207,-0.4464853 4.192,-0.4464853 z"
         style="font-style:normal;font-variant:normal;font-weight:bold;font-stretch:normal;font-size:50.8001px;font-family:'Courier Prime';-inkscape-font-specification:'Courier Prime Bold';stroke-width:0.199899;stroke-miterlimit:4;stroke-dasharray:none"
         id="path858" />
    </g>
    <text
       xml:space="preserve"
       id="text861"
       style="font-size:10.5834px;line-height:1.25;font-family:'Rockwell Extra Bold';-inkscape-font-specification:'Rockwell Extra Bold, ';white-space:pre;shape-inside:url(#rect863);" />
    <g
       aria-label="H"
       id="text869"
       style="font-size:50.8001px;line-height:1.25;font-family:'Rockwell Extra Bold';-inkscape-font-specification:'Rockwell Extra Bold, ';stroke-width:0.157322;stroke-miterlimit:4;stroke-dasharray:none"
       transform="matrix(1.4975534,0,0,1.8946548,-15.607915,-10.266985)">
      <path
         d="m 42.624409,25.88157 q 0.595314,0 0.917775,0.223242 0.322462,0.198438 0.47129,0.744143 0.173633,0.545704 0.173633,1.587503 0,1.041799 -0.173633,1.587503 -0.148828,0.545704 -0.47129,0.744142 -0.322461,0.198438 -0.917775,0.198438 h -1.41387 V 50.23982 h 1.41387 q 0.595314,0 0.917775,0.223243 0.322462,0.198438 0.47129,0.744142 0.173633,0.545704 0.173633,1.587503 0,1.041799 -0.173633,1.587503 -0.148828,0.545704 -0.47129,0.744142 -0.322461,0.198438 -0.917775,0.198438 h -9.276971 q -0.595314,0 -0.917775,-0.198438 -0.322462,-0.198438 -0.496095,-0.744142 -0.148829,-0.545704 -0.148829,-1.587503 0,-1.041799 0.148829,-1.587503 0.173633,-0.545704 0.496095,-0.744142 0.322461,-0.223243 0.917775,-0.223243 h 1.661917 v -7.416616 h -9.624237 v 7.416616 h 1.661917 q 0.595314,0 0.917775,0.223243 0.322462,0.198438 0.47129,0.744142 0.173633,0.545704 0.173633,1.587503 0,1.041799 -0.173633,1.587503 -0.148828,0.545704 -0.47129,0.744142 -0.322461,0.198438 -0.917775,0.198438 h -9.276971 q -0.595314,0 -0.917775,-0.198438 -0.322462,-0.198438 -0.496095,-0.744142 -0.148828,-0.545704 -0.148828,-1.587503 0,-1.041799 0.148828,-1.587503 0.173633,-0.545704 0.496095,-0.744142 0.322461,-0.223243 0.917775,-0.223243 h 1.41387 V 30.966541 h -1.41387 q -0.595314,0 -0.917775,-0.198438 -0.322462,-0.198438 -0.496095,-0.744142 -0.148828,-0.545704 -0.148828,-1.587503 0,-1.041799 0.148828,-1.587503 0.173633,-0.545705 0.496095,-0.744143 0.322461,-0.223242 0.917775,-0.223242 h 9.276971 q 0.595314,0 0.917775,0.223242 0.322462,0.198438 0.47129,0.744143 0.173633,0.545704 0.173633,1.587503 0,1.041799 -0.173633,1.587503 -0.148828,0.545704 -0.47129,0.744142 -0.322461,0.198438 -0.917775,0.198438 h -1.661917 v 6.523645 h 9.624237 v -6.523645 h -1.661917 q -0.595314,0 -0.917775,-0.198438 -0.322462,-0.198438 -0.496095,-0.744142 -0.148829,-0.545704 -0.148829,-1.587503 0,-1.041799 0.148829,-1.587503 0.173633,-0.545705 0.496095,-0.744143 0.322461,-0.223242 0.917775,-0.223242 z"
         style="font-style:normal;font-variant:normal;font-weight:bold;font-stretch:normal;font-size:50.8001px;font-family:'Courier Prime';-inkscape-font-specification:'Courier Prime Bold';stroke-width:0.157322;stroke-miterlimit:4;stroke-dasharray:none"
         id="path871" />
    </g>
  </g>
</svg>
