<?xml version="1.0" encoding="UTF-8" standalone="no"?>
<svg
   xmlns:dc="http://purl.org/dc/elements/1.1/"
   xmlns:cc="http://creativecommons.org/ns#"
   xmlns:rdf="http://www.w3.org/1999/02/22-rdf-syntax-ns#"
   xmlns:svg="http://www.w3.org/2000/svg"
   xmlns="http://www.w3.org/2000/svg"
   xmlns:sodipodi="http://sodipodi.sourceforge.net/DTD/sodipodi-0.dtd"
   xmlns:inkscape="http://www.inkscape.org/namespaces/inkscape"
   width="512"
   height="512"
   viewBox="0 0 135.46699 135.46671"
   version="1.1"
   id="svg8"
   inkscape:version="1.0.1 (3bc2e813f5, 2020-09-07)"
   sodipodi:docname="H3logo.svg">
  <defs
     id="defs2">
    <rect
       x="88.332787"
       y="18.174238"
       width="7.2162943"
       height="17.773466"
       id="rect863" />
  </defs>
  <sodipodi:namedview
     id="base"
     pagecolor="#000000"
     bordercolor="#666666"
     borderopacity="1.0"
     inkscape:pageopacity="0"
     inkscape:pageshadow="2"
     inkscape:zoom="0.9899495"
     inkscape:cx="225.26458"
     inkscape:cy="213.08184"
     inkscape:document-units="mm"
     inkscape:current-layer="layer1"
     inkscape:document-rotation="0"
     showgrid="false"
     units="px"
     inkscape:window-width="1861"
     inkscape:window-height="1625"
     inkscape:window-x="78"
     inkscape:window-y="78"
     inkscape:window-maximized="0" />
  <metadata
     id="metadata5">
    <rdf:RDF>
      <cc:Work
         rdf:about="">
        <dc:format>image/svg+xml</dc:format>
        <dc:type
           rdf:resource="http://purl.org/dc/dcmitype/StillImage" />
        <dc:title></dc:title>
      </cc:Work>
    </rdf:RDF>
  </metadata>
  <g
     inkscape:label="Layer 1"
     inkscape:groupmode="layer"
     id="layer1">
    <path
       sodipodi:type="star"
       style="fill:#000000;fill-opacity:1;stroke:#eaeaea;stroke-width:0.52916793;stroke-linejoin:round;stroke-miterlimit:2.61313009;stroke-dasharray:none;stroke-dashoffset:74.47;stroke-opacity:1"
       id="path833"
       sodipodi:sides="6"
       sodipodi:cx="67.351944"
       sodipodi:cy="68.421005"
       sodipodi:r1="64.202568"
       sodipodi:r2="55.601055"
       sodipodi:arg1="0.52359878"
       sodipodi:arg2="1.0471976"
       inkscape:flatsided="true"
       inkscape:rounded="0"
       inkscape:randomized="0"
       d="m 122.953,100.52229 -55.601056,32.10128 -55.601055,-32.10128 0,-64.202569 L 67.351944,4.2184372 122.953,36.319721 Z" />
    <g
       id="g849"
       transform="matrix(0.71055791,0,0,0.71055791,5.7628579,-58.499216)"
       style="stroke-width:1.40734">
      <path
         style="fill:#f27300;fill-opacity:1;stroke-width:0.372359"
         d="m 76.301096,183.7952 v -62.78298 c 0,-2.52677 -2.219854,-4.60375 -4.720167,-4.24921 -31.530396,4.45558 -55.631293,32.00136 -54.509459,65.01342 1.153583,33.9037 30.345064,61.70612 64.264647,61.28014 13.335,-0.16669 25.656643,-4.46352 35.787543,-11.64961 2.09021,-1.48166 2.22779,-4.55877 0.41539,-6.37116 z"
         id="path839" />
      <path
         style="fill:#009cab;fill-opacity:1;stroke-width:0.372359"
         d="m 152.49051,166.6502 c -2.18016,-31.60713 -27.43729,-56.86425 -59.044414,-59.04442 -2.413,-0.16669 -4.445,1.86796 -4.445,4.28625 v 59.20317 h 59.205814 c 2.41829,0 4.45029,-2.032 4.2836,-4.445 z"
         id="path837" />
      <path
         style="fill:#4e134d;fill-opacity:1;stroke-width:0.372359"
         d="M 156.67887,183.7952 H 93.895888 l 41.812102,41.8121 c 1.59809,1.59808 4.22804,1.72773 5.87111,0.17991 10.23937,-9.6467 17.28258,-22.65097 19.34898,-37.2692 0.35454,-2.50296 -1.72244,-4.72281 -4.24921,-4.72281 z"
         id="path2" />
    </g>
    <text
       xml:space="preserve"
       id="text861"
       style="font-size:10.5834px;line-height:1.25;font-family:'Rockwell Extra Bold';-inkscape-font-specification:'Rockwell Extra Bold, ';white-space:pre;shape-inside:url(#rect863);" />
    <g
       aria-label="H"
       id="text851"
       style="font-size:50.8001px;line-height:1.25;font-family:'Rockwell Extra Bold';-inkscape-font-specification:'Rockwell Extra Bold, ';stroke-width:0.203043"
       transform="matrix(1.2059285,0,0,1.4080884,-4.7050816,-17.426557)">
      <path
         d="m 35.036009,75.881629 q 0.644923,0 0.644923,1.513089 0,1.190627 -0.372071,1.587503 -0.372071,0.396876 -0.644923,0.396876 H 21.467819 q -0.570509,0 -0.570509,-1.41387 v -0.07441 q 0,-1.165823 0.669728,-1.835551 0.198437,-0.198437 0.793751,-0.198437 h 0.07441 q 0.09922,0.0248 0.223243,0.0248 0.570509,0 1.165822,-0.07441 0.719338,-0.04961 1.116214,-0.173633 0.694532,-0.223243 0.694532,-0.818556 V 45.942313 q 0,-0.396875 -0.322461,-0.396875 h -4.043172 q -0.694533,0 -0.94258,-1.314651 -0.04961,-0.347267 -0.07441,-0.669728 0,-1.513089 0.644923,-1.513089 h 14.684403 q 0.620119,0 0.620119,1.736331 0,1.761137 -0.868166,1.761137 H 30.868813 V 58.344681 H 45.999702 V 45.942313 q 0,-0.396875 -0.297657,-0.396875 h -4.067976 q -0.719338,0 -0.967385,-1.314651 -0.04961,-0.347267 -0.04961,-0.669728 0,-1.513089 0.669728,-1.513089 h 14.659599 q 0.620118,0 0.620118,1.736331 0,1.761137 -0.868165,1.761137 h -4.464853 v 30.336191 h 4.167196 q 0.669728,0 0.669728,1.513089 0,1.215432 -0.396876,1.612308 -0.372071,0.372071 -0.620118,0.372071 H 41.882116 q -0.595314,0 -0.595314,-1.41387 0,-1.265041 0.669728,-1.909965 0.198438,-0.198437 0.793752,-0.198437 h 0.07441 q 0.09922,0.0248 0.223243,0.0248 0.570508,0 1.165822,-0.07441 0.694533,-0.04961 1.091408,-0.173633 0.694533,-0.223243 0.694533,-0.818556 V 62.164611 H 30.868813 v 13.717018 z"
         style="font-style:normal;font-variant:normal;font-weight:normal;font-stretch:normal;font-size:50.8001px;font-family:Copse;-inkscape-font-specification:Copse;stroke-width:0.203043"
         id="path853" />
    </g>
    <g
       aria-label="3"
       id="text858"
       style="font-size:50.8001px;line-height:1.25;font-family:'Rockwell Extra Bold';-inkscape-font-specification:'Rockwell Extra Bold, ';stroke-width:0.264584"
       inkscape:export-xdpi="96"
       inkscape:export-ydpi="96"
       transform="translate(10.423537,2.1381613)">
      <path
         d="m 67.908356,54.248872 q 1.488284,1.761137 4.588876,1.761137 2.902154,0 4.688095,-1.88516 1.83555,-1.909965 1.83555,-5.109776 0,-2.877349 -1.761136,-5.060166 -1.909965,-2.381254 -5.208995,-2.753325 v -2.306841 q 4.29122,-1.215432 5.878723,-4.688095 0.644923,-1.36426 0.644923,-2.902154 0,-1.537894 -0.421681,-2.554888 -0.42168,-1.016994 -1.215432,-1.785941 -1.661917,-1.637112 -4.440047,-1.637112 -3.100592,0 -4.588876,1.761136 0.793751,0.396876 1.314651,1.339456 0.520899,0.94258 0.520899,1.909964 0,0.967385 -0.297657,1.661918 -0.297657,0.694532 -0.793751,1.215432 -1.066604,1.091408 -2.703717,1.091408 -1.612307,0 -2.703716,-1.091408 -1.116213,-1.116213 -1.116213,-3.001373 0,-1.88516 0.99219,-3.547077 1.016994,-1.661918 2.604497,-2.802936 3.24942,-2.331645 7.615054,-2.356449 4.812118,0 7.689468,2.604497 2.77813,2.530083 2.77813,6.424426 v 0.04961 q 0,4.638485 -3.894343,7.515835 -1.091409,0.818556 -2.257231,1.339455 3.100592,1.562699 4.464852,3.050983 2.678911,2.976568 2.678911,6.771693 v 0.04961 q 0,4.117586 -3.24942,7.218178 -3.447858,3.29903 -8.582438,3.29903 -4.067977,0 -7.292593,-2.331645 -3.547077,-2.579693 -3.547077,-6.59806 v -0.04961 q 0,-1.612308 1.116213,-2.728521 1.091409,-1.091409 2.703716,-1.091409 1.488285,0 2.604498,1.041799 1.141018,1.066604 1.141018,2.802935 0,1.736332 -1.785941,3.373444 z"
         style="font-style:normal;font-variant:normal;font-weight:normal;font-stretch:normal;font-size:50.8001px;font-family:Copse;-inkscape-font-specification:Copse;stroke-width:0.264584"
         id="path860" />
    </g>
  </g>
</svg>
