<?xml version="1.0" encoding="UTF-8" standalone="no"?>
<svg
   xmlns:dc="http://purl.org/dc/elements/1.1/"
   xmlns:cc="http://creativecommons.org/ns#"
   xmlns:rdf="http://www.w3.org/1999/02/22-rdf-syntax-ns#"
   xmlns:svg="http://www.w3.org/2000/svg"
   xmlns="http://www.w3.org/2000/svg"
   xmlns:sodipodi="http://sodipodi.sourceforge.net/DTD/sodipodi-0.dtd"
   xmlns:inkscape="http://www.inkscape.org/namespaces/inkscape"
   width="135.45mm"
   height="135.45mm"
   viewBox="0 0 512 512"
   version="1.1"
   id="svg62"
   sodipodi:docname="H3logo.svg"
   inkscape:version="0.92.4 (5da689c313, 2019-01-14)">
  <metadata
     id="metadata68">
    <rdf:RDF>
      <cc:Work
         rdf:about="">
        <dc:format>image/svg+xml</dc:format>
        <dc:type
           rdf:resource="http://purl.org/dc/dcmitype/StillImage" />
        <dc:title></dc:title>
      </cc:Work>
    </rdf:RDF>
  </metadata>
  <defs
     id="defs66" />
  <sodipodi:namedview
     pagecolor="#ffffff"
     bordercolor="#666666"
     borderopacity="1"
     objecttolerance="10"
     gridtolerance="10"
     guidetolerance="10"
     inkscape:pageopacity="0"
     inkscape:pageshadow="2"
     inkscape:window-width="3840"
     inkscape:window-height="2107"
     id="namedview64"
     showgrid="false"
     inkscape:zoom="1"
     inkscape:cx="255.9685"
     inkscape:cy="255.9685"
     inkscape:window-x="-8"
     inkscape:window-y="-8"
     inkscape:window-maximized="1"
     inkscape:current-layer="svg62" />
  <path
     id="Black"
     fill="none"
     stroke="black"
     stroke-width="1"
     d="M 254.00,0.91            C 248.09,2.96 240.76,8.01 235.00,11.12              235.00,11.12 192.00,35.40 192.00,35.40              192.00,35.40 119.00,77.42 119.00,77.42              119.00,77.42 85.00,97.72 85.00,97.72              85.00,97.72 46.96,120.28 46.96,120.28              39.29,124.81 34.13,125.44 34.00,135.00              34.00,135.00 33.26,150.42 33.26,150.42              33.26,150.42 33.26,167.00 33.26,167.00              33.26,167.00 33.26,353.00 33.26,353.00              33.26,353.00 33.26,368.11 33.26,368.11              33.30,371.72 32.96,379.75 34.50,382.69              36.04,385.63 42.02,388.43 45.00,390.20              45.00,390.20 73.00,406.42 73.00,406.42              73.00,406.42 200.00,479.72 200.00,479.72              200.00,479.72 239.00,502.28 239.00,502.28              242.35,504.19 252.98,510.69 256.00,511.26              259.74,511.97 262.91,509.61 266.00,507.85              266.00,507.85 287.00,495.72 287.00,495.72              287.00,495.72 370.00,447.85 370.00,447.85              370.00,447.85 450.00,401.00 450.00,401.00              450.00,401.00 469.00,389.87 469.00,389.87              471.49,388.33 475.33,386.22 476.83,383.70              478.50,380.86 477.97,374.41 478.00,371.00              478.00,371.00 478.83,345.00 478.83,345.00              478.83,345.00 478.83,154.00 478.83,154.00              478.99,149.23 479.30,131.72 477.04,128.52              475.49,126.32 468.65,122.78 466.00,121.20              466.00,121.20 438.00,105.00 438.00,105.00              438.00,105.00 343.00,50.15 343.00,50.15              343.00,50.15 282.00,14.99 282.00,14.99              275.66,11.26 260.63,0.92 254.00,0.91 Z            M 354.00,71.00            C 354.00,71.00 335.00,71.00 335.00,71.00              322.11,71.02 308.55,74.70 298.00,82.30              292.88,85.98 285.39,92.97 286.27,100.00              286.99,105.82 294.01,111.87 300.00,110.57              305.66,109.34 309.64,103.32 316.00,99.98              324.29,95.64 331.06,95.99 340.00,96.00              347.26,96.01 353.96,97.00 359.91,101.63              370.23,109.68 368.37,123.84 358.98,131.66              347.39,141.32 338.20,133.92 327.00,138.97              321.89,141.27 316.92,147.07 319.05,153.00              322.95,163.91 335.94,162.35 345.00,164.09              360.62,167.11 378.33,183.93 371.01,201.00              363.44,218.63 334.65,216.07 319.00,216.00              314.67,215.98 312.26,215.80 308.00,214.76              300.30,212.89 295.11,208.14 290.00,208.21              283.51,208.30 276.32,216.41 278.74,223.00              279.78,225.83 283.97,230.15 286.00,233.00              286.00,233.00 255.11,233.00 255.11,233.00              255.11,233.00 255.11,62.00 255.11,62.00              255.00,59.84 254.95,57.09 255.11,55.00              257.34,43.86 266.26,44.99 275.00,45.00              291.67,45.03 318.77,53.33 334.00,60.31              334.00,60.31 354.00,71.00 354.00,71.00 Z            M 218.00,158.00            C 209.93,156.93 210.05,157.04 202.00,157.00              202.00,157.00 191.00,156.04 191.00,156.04              191.00,156.04 177.00,156.04 177.00,156.04              171.28,156.01 159.89,156.75 155.00,159.41              143.59,165.65 142.32,179.66 153.02,187.35              158.24,191.12 168.58,191.86 175.00,192.00              175.00,192.00 175.00,243.00 175.00,243.00              175.00,243.00 97.00,243.00 97.00,243.00              97.00,243.00 97.00,192.00 97.00,192.00              102.87,191.87 113.07,191.08 118.00,188.01              129.65,180.75 129.62,167.28 118.00,159.99              113.22,157.00 110.16,157.35 105.00,156.72              105.00,156.72 72.00,156.00 72.00,156.00              76.50,145.93 87.17,133.83 95.00,126.00              117.25,103.75 141.12,88.41 171.00,78.67              179.01,76.06 195.83,71.75 204.00,71.37              209.43,71.12 215.20,73.68 217.26,79.00              218.13,81.25 218.00,84.57 218.00,87.00              218.00,87.00 218.00,158.00 218.00,158.00 Z            M 389.00,99.00            C 389.00,99.00 389.00,100.00 389.00,100.00              389.00,100.00 388.00,99.00 388.00,99.00              388.00,99.00 389.00,99.00 389.00,99.00 Z            M 390.00,100.00            C 413.87,123.94 432.71,157.74 439.40,191.00              440.86,198.27 442.91,207.69 443.00,215.00              443.07,221.73 443.56,227.10 436.98,231.15              432.66,233.80 423.21,233.00 418.00,233.00              418.00,233.00 374.00,233.00 374.00,233.00              382.55,225.58 385.86,224.85 391.96,214.00              404.96,190.84 394.88,167.05 375.00,152.00              379.06,143.41 386.64,141.09 390.52,126.00              391.65,121.62 392.29,117.52 391.71,113.00              391.17,108.76 389.16,104.20 390.00,100.00 Z            M 218.00,190.00            C 218.00,190.00 218.00,257.00 218.00,257.00              218.02,271.98 224.81,274.81 235.00,285.00              235.00,285.00 276.00,326.00 276.00,326.00              276.00,326.00 328.00,378.00 328.00,378.00              334.62,384.62 345.30,392.57 343.79,403.00              342.60,411.17 333.53,416.00 327.00,419.72              310.51,429.12 292.68,437.12 274.00,441.00              274.00,441.00 250.00,444.96 250.00,444.96              250.00,444.96 241.00,444.96 241.00,444.96              241.00,444.96 231.00,445.99 231.00,445.99              231.00,445.99 221.00,444.96 221.00,444.96              221.00,444.96 213.00,444.96 213.00,444.96              178.85,441.58 146.72,429.11 119.00,408.99              106.36,399.81 85.39,381.12 79.00,367.00              89.22,367.00 110.79,368.10 119.00,362.35              129.84,354.75 129.08,341.94 118.00,334.99              113.11,331.92 102.84,331.13 97.00,331.00              97.00,331.00 97.00,279.00 97.00,279.00              97.00,279.00 175.00,279.00 175.00,279.00              175.00,279.00 175.00,331.00 175.00,331.00              168.22,331.15 158.57,331.80 153.02,335.80              142.77,343.17 143.36,356.32 154.00,363.01              158.77,366.00 161.85,365.65 167.00,366.28              167.00,366.28 204.00,367.00 204.00,367.00              214.33,366.98 226.89,366.58 233.12,357.00              234.58,354.76 235.70,351.70 235.64,349.00              235.50,342.09 227.45,334.10 221.00,332.53              216.82,331.52 212.66,332.61 210.60,330.98              208.62,329.41 209.00,325.30 209.00,323.00              209.00,323.00 209.00,241.00 209.00,241.00              209.00,241.00 209.00,206.00 209.00,206.00              209.00,203.22 208.50,194.54 210.02,192.60              211.29,190.99 215.90,190.52 218.00,190.00 Z            M 55.28,191.60            C 57.44,191.11 60.34,190.53 61.98,192.60              63.15,194.07 62.99,197.18 63.00,199.00              63.00,199.00 63.00,221.00 63.00,221.00              63.00,221.00 63.00,323.00 63.00,323.00              63.00,325.36 63.34,333.73 58.51,330.95              56.21,329.63 54.83,325.39 54.00,323.00              54.00,323.00 47.58,302.00 47.58,302.00              41.21,279.38 41.29,240.98 46.21,218.00              46.21,218.00 53.30,193.31 53.30,193.31              54.37,191.75 54.40,192.26 55.28,191.60 Z            M 270.00,270.00            C 270.00,270.00 453.00,270.00 453.00,270.00              455.43,270.00 458.75,269.87 461.00,270.74              473.21,275.46 466.93,297.72 464.29,307.00              457.01,332.62 446.78,354.00 430.20,375.00              425.15,381.39 416.98,391.51 410.00,395.47              398.19,402.16 390.77,392.77 383.00,385.00              383.00,385.00 370.00,372.00 370.00,372.00              370.00,372.00 306.00,308.00 306.00,308.00              296.62,298.62 277.06,279.87 270.00,270.00 Z            M 460.00,190.00" />
  <path
     style="fill:#000000;stroke-width:0.26831079"
     d="m 254.49279,509.97693 c -2.71706,-1.10608 -4.76924,-2.26186 -32.1226,-18.09107 -13.61761,-7.88039 -51.80502,-29.93594 -84.86091,-49.0123 -57.569808,-33.22321 -91.553894,-52.85363 -96.975124,-56.01632 -3.169778,-1.84923 -5.492903,-4.05603 -5.903794,-5.60815 -0.163164,-0.61637 -0.412018,-2.30672 -0.553009,-3.75635 -0.158388,-1.62852 -0.25476,-45.49411 -0.252193,-114.78964 0.0039,-106.18361 0.03098,-112.65382 0.508069,-121.54479 0.349911,-6.5209 0.632715,-9.80796 0.925366,-10.7556 0.88793,-2.87525 2.656396,-4.49115 8.207754,-7.49964 3.439428,-1.86395 30.788765,-18.03751 60.101621,-35.54224 18.85925,-11.26216 78.1891,-45.462082 112.28806,-64.726995 12.6911,-7.170099 24.9462,-14.1425196 27.23355,-15.4942685 2.28735,-1.3517493 5.54733,-3.1425757 7.24439,-3.9796142 2.60651,-1.2856008 3.29387,-1.5157602 4.42713,-1.4824177 3.19247,0.093928 10.16664,3.504414 21.19655,10.3654754 2.36114,1.468723 19.68731,11.548284 38.5026,22.399024 89.39719,51.555176 156.35034,90.253556 158.30337,91.498086 3.63757,2.31795 4.14763,3.05434 4.87258,7.03471 0.23992,1.31729 0.34346,27.31491 0.4232,106.25107 0.0909,89.93751 0.0475,106.50826 -0.31137,118.86169 -0.22933,7.89504 -0.46488,16.28646 -0.52339,18.6476 -0.12404,5.00238 -0.42525,6.11888 -2.12441,7.87449 -0.62106,0.64169 -1.98767,1.75081 -3.0369,2.4647 -7.74313,5.26842 -208.70574,121.88109 -212.07017,123.05809 -2.27532,0.79597 -3.22926,0.76901 -5.50037,-0.15554 z m -18.91591,-63.8834 c 3.00951,-0.31006 7.1239,-0.53662 9.7446,-0.53662 4.4118,0 4.88901,-0.0586 17.45185,-2.14239 17.09264,-2.83518 24.16104,-4.69205 36.50863,-9.5909 11.16423,-4.42933 27.11088,-12.56357 35.3016,-18.00701 3.04495,-2.02362 6.89409,-5.85647 8.1343,-8.09984 3.19735,-5.78363 2.01703,-12.48107 -3.35579,-19.04175 -1.33436,-1.6294 -104.23085,-104.4362 -111.58036,-111.48314 -5.0684,-4.85972 -7.00581,-7.72992 -8.35673,-12.38013 l -0.61258,-2.10865 -0.076,-36.6915 c -0.0679,-32.77991 -0.11992,-36.6915 -0.48799,-36.6915 -0.98443,0 -6.36005,1.37001 -7.34276,1.87135 -1.24976,0.63758 -1.7249,1.2847 -2.16314,2.94609 -0.41092,1.5578 -0.40424,133.45902 0.007,134.98563 0.68562,2.54621 1.96525,3.16658 7.18692,3.48412 4.31445,0.26236 6.12561,0.67977 8.37156,1.92934 4.3712,2.43197 8.06645,6.4642 9.88304,10.78433 1.03003,2.44957 0.96561,5.43756 -0.17982,8.3395 -2.43304,6.1642 -7.83887,10.0649 -16.20684,11.69446 -5.01845,0.97727 -9.75345,1.0745 -31.19404,0.64054 -20.90369,-0.4231 -25.00775,-0.67102 -28.30679,-1.70992 -2.56561,-0.80794 -4.95671,-2.31783 -7.26585,-4.58809 -3.82759,-3.76314 -5.44041,-8.53456 -4.47044,-13.22547 1.59265,-7.70223 7.83597,-12.55345 18.17575,-14.12307 1.70501,-0.25881 8.5301,-0.82085 9.99457,-0.82299 h 0.73786 v -26.56277 -26.56277 h -39.576 -39.575847 v 26.56277 26.56277 h 0.7513 c 4.085977,0 13.162287,1.20439 16.287387,2.16127 5.4697,1.67477 9.92232,5.67343 11.86717,10.65728 0.95101,2.43704 1.00059,6.5866 0.10797,9.03719 -1.53773,4.22171 -5.45597,8.23741 -9.73339,9.97547 -1.74178,0.70775 -4.97001,1.52425 -7.75396,1.96119 -4.45874,0.69976 -7.883449,0.89527 -18.4445,1.05285 l -11.345152,0.16931 1.201402,2.35373 c 4.302302,8.42887 14.69223,20.12167 28.03263,31.54785 26.23182,22.46783 58.58593,37.592 92.73127,43.34799 7.20493,1.21456 12.59718,1.76702 17.42482,1.78521 2.58335,0.01 6.38799,0.2286 8.73548,0.50252 2.28735,0.26691 4.16406,0.50061 4.17046,0.51937 0.006,0.0188 2.35559,-0.20738 5.22042,-0.50252 z m 169.70658,-48.1488 c 6.09331,-1.44416 12.4472,-6.79605 22.33284,-18.81103 17.90991,-21.7676 29.29391,-43.9913 37.60929,-73.42046 2.63194,-9.31484 3.65831,-15.80149 3.44154,-21.75078 -0.2092,-5.74153 -1.23903,-8.78197 -3.8652,-11.41155 -1.69632,-1.69851 -3.59894,-2.62714 -6.13294,-2.99333 -2.03079,-0.29349 -189.82157,-0.41041 -189.82157,-0.11819 0,0.29855 3.58191,4.76281 6.41361,7.99354 1.539,1.75583 5.18194,5.67987 8.09542,8.7201 9.1709,9.56976 106.5525,106.67525 108.29038,107.98329 4.81838,3.62673 9.21841,4.85554 13.63663,3.80841 z M 61.975138,331.30244 c 1.567622,-1.56763 1.470625,2.76854 1.549501,-69.27012 0.05182,-47.33301 -0.0117,-66.81517 -0.22111,-67.82827 -0.575902,-2.78593 -3.019835,-4.13125 -6.468467,-3.5607 -1.708788,0.2827 -2.801332,0.77286 -3.538653,1.58759 -0.697817,0.77108 -7.506073,24.44946 -8.343598,29.01814 -1.956085,10.67039 -2.822825,21.75104 -2.822825,36.0878 0,19.23241 1.703581,34.16383 5.260228,46.10444 3.669697,12.32016 6.696725,21.76134 7.586154,23.6609 1.607004,3.43213 3.218642,4.92367 5.347122,4.94873 0.631134,0.008 1.115011,-0.21186 1.651648,-0.74851 z M 175.47526,217.50489 V 191.4909 l -0.87201,-0.13214 c -0.47961,-0.0727 -2.26703,-0.19319 -3.97205,-0.26781 -6.20301,-0.27147 -11.73222,-1.44142 -15.50946,-3.28174 -2.69316,-1.31214 -5.68782,-4.30087 -7.09123,-7.07719 -2.23455,-4.42057 -2.29263,-8.72387 -0.17726,-13.13451 0.88283,-1.84075 1.50456,-2.67821 3.28755,-4.42829 2.54039,-2.4935 4.43512,-3.59214 7.85046,-4.55199 5.12605,-1.44063 11.95739,-2.02308 23.72839,-2.02311 5.74528,-2e-5 9.49661,0.14491 13.68385,0.52868 3.17278,0.29079 7.52015,0.53049 9.66084,0.53267 3.3611,0.003 8.86884,0.44892 11.73695,0.94936 l 0.87201,0.15215 -0.008,-37.64275 c -0.005,-22.560649 -0.11201,-38.44901 -0.26718,-39.655073 -0.59821,-4.649684 -3.53068,-8.038546 -8.52451,-9.851208 -3.54186,-1.285627 -7.46305,-1.110946 -16.8237,0.749468 -24.75802,4.920616 -47.18417,14.023526 -67.10901,27.239958 -18.94703,12.567835 -38.924374,31.695285 -49.432627,47.329615 -2.379696,3.54055 -5.601098,9.28484 -5.348563,9.53738 0.05664,0.0566 7.945246,0.28942 17.530238,0.51729 23.689862,0.56321 25.038552,0.75668 30.056762,4.31182 4.24887,3.01009 6.851,7.18452 7.25747,11.64267 0.59371,6.51186 -4.60283,13.62934 -11.6519,15.95908 -3.72855,1.23231 -10.50354,2.30304 -14.572268,2.30304 -0.978562,0 -2.156516,0.0755 -2.617675,0.1677 l -0.838472,0.16769 v 25.99261 25.99261 h 39.575845 39.57584 z m 111.45464,15.7511 c -0.10687,-0.18446 -1.48761,-1.96538 -3.06831,-3.95758 -3.60572,-4.54441 -4.44502,-5.87377 -4.84949,-7.68115 -0.62478,-2.7918 0.76037,-6.36501 3.54257,-9.1386 2.21029,-2.20346 4.55357,-3.39074 6.96058,-3.52675 2.39596,-0.13538 3.86723,0.31981 9.33442,2.88798 5.02285,2.35945 8.31328,3.49034 12.2567,4.21255 2.37592,0.43513 4.28055,0.49195 16.63527,0.4963 14.80469,0.005 16.87473,-0.11566 23.09039,-1.34816 12.63226,-2.50486 19.98495,-8.588 21.9646,-18.17212 1.61579,-7.8226 -1.32761,-15.94084 -8.29118,-22.86792 -3.0972,-3.08097 -5.95476,-5.19825 -9.61988,-7.12775 -4.9076,-2.58359 -8.69271,-3.61556 -16.14319,-4.40126 -7.75679,-0.818 -11.34335,-1.76281 -14.39638,-3.79247 -2.56913,-1.70795 -4.40148,-4.36387 -5.01808,-7.27353 -1.03404,-4.87957 3.39443,-10.64294 9.80611,-12.76203 2.95011,-0.97502 5.76303,-1.26739 12.19374,-1.26739 3.66432,0 6.22003,-0.12848 7.51973,-0.37804 8.5018,-1.63246 15.84147,-8.44254 17.92917,-16.63553 0.67427,-2.64612 0.72932,-6.99122 0.11881,-9.37631 -1.93144,-7.54536 -8.57621,-13.084481 -18.09912,-15.087539 -2.77621,-0.583952 -16.32811,-0.837889 -20.47335,-0.383634 -5.16563,0.566074 -9.81161,2.036914 -13.67768,4.330103 -1.00501,0.59612 -3.78203,2.65089 -6.17115,4.56614 -4.54676,3.64493 -7.20697,5.21264 -9.32143,5.49334 -1.60889,0.21357 -4.27334,-0.47599 -6.1173,-1.58317 -1.89209,-1.13608 -4.27076,-3.7089 -5.27066,-5.70084 -0.71564,-1.42567 -0.80362,-1.86734 -0.80493,-4.040629 -10e-4,-2.37366 0.0329,-2.508617 1.26322,-4.96375 4.22797,-8.437161 16.2577,-16.482707 29.85609,-19.967925 7.14265,-1.830634 9.56874,-2.057748 23.54755,-2.204369 l 12.54353,-0.131564 -0.007,-0.574067 c -0.006,-0.476112 -1.34117,-1.283706 -7.82426,-4.732884 -12.38804,-6.590749 -13.45742,-7.114333 -19.1304,-9.366352 -12.5515,-4.982606 -26.82248,-9.066203 -38.97251,-11.151863 -4.80359,-0.824578 -9.87423,-1.20922 -15.97866,-1.212086 -6.27475,-0.003 -8.80146,0.279599 -11.10412,1.24171 -2.92558,1.222387 -5.03549,3.679585 -6.12733,7.13589 l -0.66709,2.111348 v 89.333641 89.33365 h 16.3828 c 13.03099,0 16.34303,-0.0686 16.18847,-0.33539 z m 147.06281,-0.30258 c 5.10813,-1.52848 8.33838,-4.9838 9.27467,-9.92083 0.38307,-2.01985 0.29785,-10.37153 -0.14411,-14.12744 -1.0734,-9.12186 -4.10773,-23.519 -6.89862,-32.73227 -8.05681,-26.59717 -23.16399,-52.50679 -42.96922,-73.69437 l -3.80231,-4.067711 -1.46562,-0.02401 -1.46562,-0.02401 1.2328,1.274477 c 1.18605,1.226104 1.23939,1.350854 1.4056,3.286814 0.095,1.10678 0.54084,3.64231 0.99071,5.63452 1.40507,6.22232 1.35285,10.57883 -0.20101,16.76943 -1.79168,7.13801 -4.24323,11.77438 -9.36367,17.70851 -2.8024,3.24771 -4.74672,5.87977 -5.59259,7.57086 -0.38508,0.76984 -0.70016,1.44523 -0.70016,1.50086 0,0.0556 1.19098,1.08527 2.64662,2.2881 10.2624,8.48 16.94605,18.9452 19.39125,30.36251 0.86101,4.02034 0.8649,11.77652 0.008,15.66788 -1.32476,6.01511 -3.83518,11.79772 -7.53715,17.36143 -2.34884,3.53011 -4.36177,5.73504 -7.83516,8.58251 -6.17238,5.06013 -8.15367,6.73869 -8.24156,6.98235 -0.0584,0.16204 10.8852,0.2242 29.78249,0.16915 27.81377,-0.081 29.98599,-0.12025 31.48477,-0.56873 z"
     id="path70"
     inkscape:connector-curvature="0"
     transform="scale(1.0001231)" />
  <path
     style="fill:#ffffff"
     d="m 97.968498,217.21354 v -24.35497 l 6.865982,-0.57561 c 11.84297,-0.99288 18.60882,-5.15393 21.74872,-13.37563 1.41406,-3.70267 1.4695,-4.96645 0.3874,-8.83133 -1.33637,-4.77305 -6.75776,-10.61626 -11.80438,-12.72285 -1.53479,-0.64066 -10.99602,-1.31377 -21.947722,-1.56144 -10.5875,-0.23943 -19.25,-0.78633 -19.25,-1.21532 0,-1.66973 8.277251,-13.05001 14.824571,-20.3821 16.447491,-18.41889 35.516091,-33.08497 56.675431,-43.590331 16.39088,-8.137875 26.6861,-11.852003 43.07863,-15.541158 15.46361,-3.4801 21.54845,-3.154883 25.58936,1.367677 l 2.83201,3.169573 v 38.484229 38.48422 h -2.56261 c -1.40943,0 -8.94693,-0.47237 -16.75,-1.04971 -16.8585,-1.24734 -36.69149,-0.0124 -41.87216,2.60727 -7.19979,3.64066 -10.81523,8.79707 -10.81523,15.4249 0,11.09305 7.58504,17.51226 22.13402,18.732 l 6.86598,0.57561 v 24.35497 24.35496 h -38 -38.000002 z"
     id="path74"
     inkscape:connector-curvature="0"
     transform="scale(1.0001231)" />
  <path
     style="fill:#ffffff"
     d="m 57.436476,328.15997 c -2.018801,-3.08108 -8.048053,-22.42694 -10.624808,-34.09147 -1.45058,-6.56653 -2.139585,-14.44304 -2.54823,-29.13062 -0.725595,-26.07948 0.530899,-38.06764 5.988595,-57.13696 l 4.216465,-14.73242 h 3.5 3.5 l 0.275854,66.5 c 0.15172,36.575 0.03065,67.5125 -0.269052,68.75 -0.704033,2.90706 -2.065181,2.85363 -4.038824,-0.15853 z"
     id="path76"
     inkscape:connector-curvature="0"
     transform="scale(1.0001231)" />
  <path
     style="fill:#ffffff"
     d="m 212.4685,443.5925 c -40.93843,-3.32346 -83.63505,-23.52123 -114.432505,-54.13264 -7.836725,-7.78939 -17.067497,-19.0888 -17.067497,-20.89238 0,-0.42954 6.6375,-0.99943 14.75,-1.26641 16.533032,-0.54409 20.787162,-1.50928 25.712422,-5.83372 8.20586,-7.20484 8.13001,-17.56669 -0.18215,-24.88335 -4.48997,-3.95223 -9.39751,-5.5819 -18.78027,-6.23645 l -4.000002,-0.27905 -0.267171,-25.25 -0.267171,-25.25 h 38.034344 38.03434 l -0.26717,25.25 -0.26717,25.25 -6.53442,0.6465 c -10.90524,1.07895 -17.76629,4.93396 -20.59446,11.57138 -2.89455,6.79321 -1.04752,14.8523 4.4675,19.49288 5.89492,4.96024 8.393,5.28924 40.16138,5.28924 28.86483,0 29.60177,-0.0501 34.22666,-2.32791 5.73867,-2.82633 9.36303,-6.93459 10.78871,-12.22915 1.39491,-5.18031 -1.04554,-10.95723 -6.82995,-16.16756 -4.34215,-3.91121 -5.61572,-4.4306 -13.69909,-5.58675 l -4.98633,-0.71319 -0.25998,-67.98772 c -0.24102,-63.02882 -0.13591,-68.07889 1.44113,-69.23772 0.93561,-0.6875 2.48999,-1.25 3.45419,-1.25 1.63392,0 1.77386,2.53184 2.05887,37.25 0.26758,32.59524 0.5153,37.63218 1.98243,40.30847 0.92215,1.68216 27.80058,29.09489 59.72986,60.91719 31.92928,31.8223 59.24142,59.57329 60.69365,61.66885 5.9221,8.5456 3.78402,15.99209 -6.62753,23.08232 -8.28796,5.64407 -30.18033,16.21938 -41.9458,20.2623 -20.62088,7.08588 -53.01109,10.60628 -78.52682,8.53487 z"
     id="path78"
     inkscape:connector-curvature="0"
     transform="scale(1.0001231)" />
  <path
     style="fill:#ffffff"
     d="M 396.29399,395.28306 C 393.53149,393.74008 279.61083,280.43812 275.13447,274.78155 l -3.33403,-4.21305 h 92.61615 c 101.44316,0 97.84088,-0.20945 100.98549,5.87156 6.60001,12.763 -9.67748,61.30066 -30.2024,90.06018 -8.36971,11.72764 -21.34617,25.57611 -26.36466,28.13636 -4.28188,2.18445 -9.3223,2.44427 -12.54103,0.64646 z"
     id="path80"
     inkscape:connector-curvature="0"
     transform="scale(1.0001231)" />
  <path
     style="fill:#ffffff"
     d="m 255.9685,143.01884 c 0,-95.833967 -0.17989,-92.562369 5.26035,-95.670697 3.55094,-2.028864 21.51504,-1.377625 33.23965,1.205011 14.75162,3.249412 32.66209,9.498701 44,15.352401 l 10,5.162943 -12,0.794295 c -6.6,0.436862 -14.7,1.453951 -18,2.260197 -14.78039,3.611102 -29.90583,14.392597 -32.54381,23.197403 -1.05483,3.520707 -0.96756,4.556142 0.66479,7.887237 2.30013,4.69383 7.55185,8.36087 11.97394,8.36087 2.43042,0 5.09054,-1.36228 10.10212,-5.17341 9.95141,-7.567696 14.65557,-9.161736 27.30296,-9.251811 13.55961,-0.09657 19.11076,1.483345 24.64032,7.012911 6.93138,6.93138 6.96946,16.2314 0.0985,24.05699 -4.80084,5.46785 -8.92658,7.01369 -20.32608,7.61581 -15.29551,0.80791 -22.41274,5.3297 -22.41274,14.23951 0,8.30363 5.00815,11.80628 20.1093,14.06424 11.20005,1.67466 17.6176,4.38735 23.98194,10.13716 10.82372,9.77858 12.51907,22.18978 4.27723,31.31251 -4.70131,5.20378 -12.02815,7.82799 -25.3213,9.06916 -16.1499,1.50789 -31.76921,-0.0109 -40.7791,-3.96541 -9.21064,-4.04258 -13.13877,-4.0481 -17.72092,-0.0249 -1.93734,1.70101 -4.02734,4.77795 -4.64444,6.83764 -1.16582,3.89116 -0.53464,5.89443 3.72406,11.81962 l 1.61717,2.24998 H 269.59047 255.9685 Z"
     id="path82"
     inkscape:connector-curvature="0"
     transform="scale(1.0001231)" />
  <path
     style="fill:#ffffff"
     d="m 400.14342,231.85212 -22.32507,-0.32228 6.35211,-6.23067 c 19.34777,-18.97788 19.16597,-45.66469 -0.45196,-66.34684 -3.7125,-3.91389 -6.75,-7.51708 -6.75,-8.00709 0,-0.49001 2.03872,-3.36273 4.53049,-6.38383 8.81126,-10.68306 12.96796,-23.98939 10.64187,-34.06654 -1.90366,-8.24709 -1.47036,-8.35519 4.90696,-1.22417 13.87225,15.51172 28.91678,41.55848 35.91953,62.18787 6.81015,20.06199 10.90138,48.34924 7.81207,54.01353 -3.50045,6.41813 -6.40505,6.87417 -40.636,6.38002 z"
     id="path84"
     inkscape:connector-curvature="0"
     transform="scale(1.0001231)" />
</svg>
