<?xml version="1.0" standalone="no"?>
<!DOCTYPE svg PUBLIC "-//W3C//DTD SVG 20010904//EN"
 "http://www.w3.org/TR/2001/REC-SVG-20010904/DTD/svg10.dtd">
<svg version="1.0" xmlns="http://www.w3.org/2000/svg"
 width="700.000000pt" height="700.000000pt" viewBox="0 0 700.000000 700.000000"
 preserveAspectRatio="xMidYMid meet">
<metadata>
Created by potrace 1.11, written by Peter Selinger 2001-2013
</metadata>
<g transform="translate(0.000000,700.000000) scale(0.100000,-0.100000)"
fill="#000000" stroke="none">
<path d="M3445 6781 c-10 -9 -495 -291 -501 -291 -2 0 -28 -16 -58 -35 -30
-19 -58 -35 -61 -35 -3 0 -22 -11 -43 -23 -20 -13 -68 -42 -107 -64 -316 -183
-536 -310 -570 -329 -22 -12 -371 -213 -775 -446 l-735 -425 -1 -1659 c0 -913
1 -1665 4 -1671 2 -7 16 -19 30 -26 15 -7 189 -107 387 -222 198 -114 416
-241 485 -280 69 -40 330 -190 580 -335 386 -223 578 -334 745 -430 17 -9 127
-73 245 -142 118 -68 224 -129 235 -135 11 -7 55 -32 97 -57 l77 -46 253 146
c139 81 294 170 343 199 50 29 104 60 120 69 17 9 37 21 45 26 31 20 222 130
226 130 2 0 23 11 45 26 22 14 55 33 72 43 18 10 209 120 425 244 215 125 569
329 785 454 215 124 406 234 422 243 88 50 141 83 146 92 4 6 6 756 6 1669 l0
1659 -36 21 c-65 39 -265 155 -311 181 -47 26 -465 267 -681 393 -69 41 -143
83 -165 95 -21 12 -52 29 -69 39 -16 10 -176 103 -355 206 -179 103 -362 209
-408 236 -45 27 -85 49 -87 49 -4 0 -63 34 -155 90 -187 112 -612 350 -627
350 -10 0 -23 -4 -28 -9z"/>
</g>
</svg>
