<?xml version="1.0" standalone="no"?>
<!DOCTYPE svg PUBLIC "-//W3C//DTD SVG 20010904//EN"
 "http://www.w3.org/TR/2001/REC-SVG-20010904/DTD/svg10.dtd">
<svg version="1.0" xmlns="http://www.w3.org/2000/svg"
 width="512.000000pt" height="512.000000pt" viewBox="0 0 512.000000 512.000000"
 preserveAspectRatio="xMidYMid meet">
<metadata>
Created by potrace 1.11, written by Peter Selinger 2001-2013
</metadata>
<g transform="translate(0.000000,512.000000) scale(0.100000,-0.100000)"
fill="#000000" stroke="none">
<path d="M2485 5083 c-66 -39 -186 -106 -225 -125 -14 -7 -27 -15 -30 -18 -3
-3 -24 -16 -48 -28 -37 -19 -980 -564 -1090 -629 -20 -13 -48 -28 -62 -35 -14
-7 -27 -15 -30 -18 -3 -4 -102 -62 -220 -130 -118 -69 -221 -130 -228 -137 -7
-7 -20 -13 -28 -13 -8 0 -14 -3 -14 -7 0 -5 -36 -28 -80 -53 -44 -25 -83 -52
-86 -60 -8 -18 -15 -2471 -7 -2516 5 -29 61 -64 1106 -667 606 -350 1110 -639
1119 -642 12 -5 265 136 820 456 442 255 805 465 808 468 8 9 63 40 93 52 15
6 27 14 27 19 0 4 15 13 33 21 17 7 34 16 37 19 4 6 96 61 328 195 67 39 67
38 72 153 7 148 10 2380 4 2418 -6 29 -63 64 -1107 667 -606 350 -1109 638
-1117 641 -8 3 -42 -11 -75 -31z m455 -443 c157 -33 299 -83 458 -161 79 -39
142 -72 140 -74 -2 -2 -28 1 -58 6 -71 13 -214 2 -307 -22 -144 -36 -287 -135
-313 -215 -24 -73 21 -154 93 -168 45 -8 79 6 136 56 75 67 139 91 256 96 133
6 198 -12 259 -71 97 -93 76 -225 -47 -301 -44 -27 -58 -30 -170 -36 -134 -7
-158 -16 -187 -63 -43 -70 -10 -162 65 -183 22 -7 79 -16 127 -21 106 -12 175
-43 241 -110 68 -68 90 -119 85 -198 -3 -53 -9 -71 -35 -102 -63 -79 -181
-113 -389 -113 -161 0 -213 9 -308 56 -84 41 -115 40 -166 -2 -60 -51 -57
-138 6 -193 l35 -31 -156 0 -155 0 2 906 3 906 39 35 39 36 101 -6 c55 -3 148
-15 206 -27z m-787 -280 l27 -30 0 -395 0 -394 -32 7 c-18 4 -150 7 -293 7
-257 0 -261 0 -310 -25 -123 -61 -125 -238 -4 -298 30 -15 72 -24 127 -29 l82
-6 0 -253 0 -254 -385 0 -385 0 0 254 0 253 76 6 c93 8 153 34 185 78 34 49
34 149 0 198 -45 63 -90 74 -318 81 l-203 5 66 89 c78 105 229 264 329 346
244 200 554 341 860 393 97 16 141 9 178 -33z m1860 -370 c238 -294 394 -675
414 -1011 l6 -106 -36 -39 -35 -39 -308 -3 -308 -3 39 29 c141 102 216 284
187 455 -7 40 -26 100 -43 134 -28 59 -108 152 -157 186 l-24 15 41 41 c113
113 156 269 116 420 l-14 54 31 -29 c16 -16 57 -63 91 -104z m-3415 -786 l22
-6 0 -695 0 -694 -22 3 c-19 2 -29 20 -56 92 -81 216 -112 395 -112 640 0 230
23 381 88 584 27 84 31 89 80 76z m1582 -387 l0 -392 616 -615 c338 -338 622
-627 630 -642 17 -33 18 -78 2 -114 -16 -36 -160 -130 -303 -199 -141 -69
-287 -119 -444 -152 -116 -25 -145 -27 -361 -28 -263 0 -347 11 -547 71 -355
107 -692 334 -926 624 l-60 75 169 6 c141 4 177 9 215 26 68 30 94 73 94 153
0 53 -5 71 -24 99 -32 44 -92 70 -185 78 l-76 6 0 258 0 259 385 0 385 0 0
-259 0 -258 -82 -6 c-109 -9 -165 -36 -195 -97 -46 -90 -16 -186 72 -230 l50
-25 305 0 c272 0 310 2 353 18 119 46 142 194 45 284 -30 29 -60 39 -135 48
l-63 7 0 693 0 694 23 4 c62 12 57 46 57 -386z m2464 -431 c33 -31 36 -38 36
-92 -1 -163 -108 -484 -233 -696 -114 -194 -312 -425 -384 -449 -75 -24 -62
-35 -738 641 l-630 630 957 0 957 0 35 -34z"/>
</g>
</svg>
