<svg version="1" xmlns="http://www.w3.org/2000/svg" width="682.667" height="682.667" viewBox="0 0 512.000000 512.000000"><path d="M248.5 3.7c-6.6 3.9-18.6 10.6-22.5 12.5-1.4.7-2.7 1.5-3 1.8-.3.3-2.4 1.6-4.8 2.8-3.7 1.9-98 56.4-109 62.9-2 1.3-4.8 2.8-6.2 3.5-1.4.7-2.7 1.5-3 1.8-.3.4-10.2 6.2-22 13-11.8 6.9-22.1 13-22.8 13.7-.7.7-2 1.3-2.8 1.3-.8 0-1.4.3-1.4.7 0 .5-3.6 2.8-8 5.3s-8.3 5.2-8.6 6c-.8 1.8-1.5 247.1-.7 251.6.5 2.9 6.1 6.4 110.6 66.7 60.6 35 111 63.9 111.9 64.2 1.2.5 26.5-13.6 82-45.6 44.2-25.5 80.5-46.5 80.8-46.8.8-.9 6.3-4 9.3-5.2 1.5-.6 2.7-1.4 2.7-1.9 0-.4 1.5-1.3 3.3-2.1 1.7-.7 3.4-1.6 3.7-1.9.4-.6 9.6-6.1 32.8-19.5 6.7-3.9 6.7-3.8 7.2-15.3.7-14.8 1-238 .4-241.8-.6-2.9-6.3-6.4-110.7-66.7C307.1 29.7 256.8.9 256 .6c-.8-.3-4.2 1.1-7.5 3.1zM294 48c14.3 3 29.3 8.1 42.5 14.4 11.9 5.7 19.7 10.3 15.6 9.1-4.5-1.3-24.5-.7-32.1 1-21.2 4.8-37.6 19.1-34.1 29.8 2.2 6.5 9 10.4 15.2 8.7 1.7-.5 5.1-2.8 7.6-5 7.5-7 14-9.4 26.5-9.8 12.4-.5 18.8 1.1 24.6 6.2 11 9.6 8.3 24.7-5.7 31.8-4.7 2.4-6.7 2.8-14 2.8-4.7 0-10.2.5-12.2 1-7.5 2.1-11.3 9.2-8.9 16.5 1.5 4.4 5.7 7.2 12 8 18 2.1 23.7 4 31.7 10.9 8.1 7 11.9 20.6 8 28.3-5.7 10.9-18.6 14.8-46.2 14.1l-16.3-.4-7.3-3.6c-9.7-4.7-10.2-4.8-14.3-3.7-5.3 1.5-8.6 6-8.6 12 0 4.4.4 5.3 4 8.9l4 4h-31l.2-90.6.3-90.6 3.9-3.5 3.9-3.6 10.1.6c5.5.3 14.8 1.5 20.6 2.7zm-78.7 28l2.7 3v79l-4.7-.8c-2.7-.4-15.8-.7-29.3-.7-23.6 0-24.7.1-29.2 2.3-6.3 3.1-9.3 7.9-9.3 15.2 0 11 6.4 16.3 21.3 17.6l8.2.7V243H97v-50.8l8.5-.7c11.1-.9 16.2-3.4 19.3-9.5 4.5-8.9 1.4-18.6-7.2-22.9-4.6-2.3-6.3-2.5-25.2-3l-20.4-.6 6.6-8.9c7.8-10.5 22.9-26.4 32.9-34.6 24.4-20 55.4-34.1 86-39.3 9.7-1.6 14.1-.9 17.8 3.3zm186 37c23.8 29.4 39.4 67.5 41.4 101.1l.6 10.6-3.6 3.9-3.5 3.9-30.9.2c-29 .2-30.7.1-28.3-1.4 4.7-3.2 12.5-11.8 15.3-17 3.9-7.2 6-18.2 5.2-26.2-1.5-14.3-7.8-25.4-19.5-34.3l-3.4-2.7 5.2-5.5c11.4-12.1 15.1-28.9 9.6-44.1-1.1-3 4.5 2.4 11.9 11.5zM60.8 191.6l2.2.6v138.6l-2.5.4c-2.3.5-2.7-.1-5.4-7.1-8.6-22.4-11.1-35.6-11.8-60.6-.7-26.3 1.1-40.5 7.8-62.3 3.4-10.8 3.7-11.2 9.7-9.6zM218 230.3v39.2l61.6 61.5c33.8 33.8 62.2 62.7 63 64.2 1.7 3.3 1.8 7.8.2 11.4-1.6 3.6-16 13-30.3 19.9-14.1 6.9-28.7 11.9-44.4 15.2-11.6 2.5-14.5 2.7-36.1 2.8-26.3 0-34.7-1.1-54.7-7.1-35.5-10.7-69.2-33.4-92.6-62.4l-6-7.5 17.1-.6c15.3-.6 17.6-.9 21.9-3 8.5-4.3 11.5-14 7.1-22.9-3.1-6.1-8.2-8.6-19.3-9.5l-8.5-.7V279h78v51.6l-9.5 1.1c-14.7 1.7-19.9 6.3-20 17.3 0 7.3 2.9 12.1 9.3 15.2 4.6 2.3 5.3 2.3 35.7 2.3 30.7 0 31.1 0 35.8-2.4 11-5.4 12.7-18.1 3.7-27.1-2.7-2.7-4.9-4-7.9-4.4-2.3-.3-5.9-.9-8.1-1.2l-4-.6v-69.3c0-54.5.3-69.4 1.3-69.8.6-.3 2.4-.6 4-.6l2.7-.1v39.3zm246.4 43.1c3.3 3.1 3.6 3.8 3.6 9.2-.1 16.3-10.8 48.4-23.3 69.6-11.4 19.4-31.2 42.5-38.4 44.9-7.5 2.4-6.2 3.5-73.8-64.1l-63-63h191.4l3.5 3.4z"/></svg>