<?xml version="1.0" standalone="no"?>
<!DOCTYPE svg PUBLIC "-//W3C//DTD SVG 20010904//EN"
 "http://www.w3.org/TR/2001/REC-SVG-20010904/DTD/svg10.dtd">
<svg version="1.0" xmlns="http://www.w3.org/2000/svg"
 width="700.000000pt" height="700.000000pt" viewBox="0 0 700.000000 700.000000"
 preserveAspectRatio="xMidYMid meet">
<metadata>
Created by potrace 1.11, written by Peter Selinger 2001-2013
</metadata>
<g transform="translate(0.000000,700.000000) scale(0.100000,-0.100000)"
fill="#000000" stroke="none">
<path d="M3455 6822 c-16 -10 -50 -30 -75 -44 -25 -14 -144 -83 -265 -153
-121 -70 -240 -139 -265 -152 -25 -14 -85 -49 -135 -78 -142 -83 -336 -195
-385 -223 -25 -14 -112 -64 -195 -112 -82 -48 -208 -121 -280 -162 -304 -174
-1183 -683 -1217 -704 l-37 -24 0 -1669 c0 -1284 3 -1672 12 -1679 10 -8 449
-262 587 -340 25 -14 88 -51 140 -82 52 -31 102 -59 110 -63 8 -4 31 -17 50
-28 54 -33 480 -279 530 -307 25 -14 99 -56 165 -95 66 -38 134 -77 150 -87
17 -9 75 -43 130 -75 55 -32 114 -66 130 -75 17 -9 87 -50 155 -90 69 -40 145
-84 170 -98 25 -14 109 -63 188 -108 79 -46 144 -84 146 -84 2 0 56 -31 121
-69 l117 -69 121 72 c67 40 147 86 177 103 30 17 138 79 240 138 410 237 517
299 557 322 23 12 92 52 153 88 61 36 115 65 121 65 5 0 9 5 9 10 0 6 4 10 9
10 5 0 102 54 216 120 114 66 209 120 213 120 3 0 13 6 21 14 9 7 41 27 71 43
30 17 127 72 215 123 88 52 171 100 185 107 14 8 48 27 75 43 28 17 59 34 70
40 11 6 41 23 66 38 25 15 120 70 211 122 l166 95 0 1672 c0 1262 -3 1674 -11
1681 -7 6 -28 19 -47 30 -19 11 -134 77 -255 147 -121 71 -245 141 -275 158
-30 16 -62 34 -70 41 -8 6 -24 16 -35 22 -49 27 -114 64 -161 91 -27 17 -70
41 -95 55 -24 14 -84 49 -134 78 -49 29 -106 62 -125 72 -19 11 -183 106 -365
211 -181 105 -456 263 -610 352 -154 89 -375 216 -491 283 -116 67 -217 122
-225 122 -8 0 -27 -8 -44 -18z"/>
</g>
</svg>
